<svg width="113" height="12" viewBox="0 0 113 12" fill="none" xmlns="http://www.w3.org/2000/svg">
<path d="M6.48 0H9.71L16.19 11.2H12.84L11.43 8.7H4.72L3.31 11.2H0L6.48 0ZM8.08 2.37L5.86 6.37H10.33L8.09 2.37H8.08Z" fill="#F7F7FB"/>
<path d="M27.5604 0C29.6304 0 30.7604 0.72 30.7604 2.77V3.04C30.7604 4.5 30.1504 5.26 29.0204 5.58C30.2404 5.88 30.9104 6.64 30.9104 8.16V8.43C30.9104 10.48 29.7703 11.2 27.7104 11.2H17.6104V0H27.5704H27.5604ZM20.2204 4.5H26.4504C27.4604 4.5 27.7804 4.18 27.7804 3.6V3.41C27.7804 2.77 27.4904 2.42 26.5204 2.42H20.2304V4.5H20.2204ZM20.2204 6.87V8.78H26.5904C27.5704 8.78 27.8504 8.46 27.8504 7.95V7.71C27.8504 7.2 27.5304 6.88 26.5204 6.88H20.2104L20.2204 6.87Z" fill="#F7F7FB"/>
<path d="M35.5198 11.2C33.4498 11.2 32.2998 10.03 32.2998 7.97V3.23C32.2998 1.16 33.4498 0 35.5198 0H43.0898C45.1598 0 46.3198 1.17 46.3198 3.23V7.97C46.3198 10.04 45.1498 11.2 43.0898 11.2H35.5198ZM42.1298 8.6C43.3598 8.6 43.7098 7.98 43.7098 7.14V4C43.7098 3.22 43.4098 2.61 42.1898 2.61H36.5698C35.2398 2.61 34.9098 3.25 34.9098 4.13V7.17C34.9098 7.99 35.2598 8.59 36.4598 8.59H42.1298V8.6Z" fill="#F7F7FB"/>
<path d="M61.3805 7.97C61.3805 10.04 60.2305 11.2 58.1605 11.2H50.9605C48.9005 11.2 47.7305 10.03 47.7305 7.97V0H50.3405V6.9C50.3405 7.88 50.7405 8.58 52.1605 8.58H56.9505C58.3705 8.58 58.7805 7.88 58.7805 6.9V0H61.3905V7.97H61.3805Z" fill="#F7F7FB"/>
<path d="M70.6703 11.2H68.0603V2.61H62.7803V0H75.9503V2.61H70.6703V11.21V11.2Z" fill="#F7F7FB"/>
<path d="M97.4596 7.97C97.4596 10.04 96.3096 11.2 94.2396 11.2H87.0396C84.9796 11.2 83.8096 10.03 83.8096 7.97V0H86.4196V6.9C86.4196 7.88 86.8196 8.58 88.2396 8.58H93.0296C94.4496 8.58 94.8596 7.88 94.8596 6.9V0H97.4696V7.97H97.4596Z" fill="#F7F7FB"/>
<path d="M109.83 3.49999V3.39999C109.83 2.83999 109.54 2.59999 108.82 2.59999H102.47C101.75 2.59999 101.48 2.83999 101.48 3.41999V3.55999C101.48 4.08999 101.75 4.30999 102.47 4.30999H108.9C111.28 4.30999 112.52 5.23999 112.52 6.97999V8.15999C112.52 10.16 111.54 11.19 109.16 11.19H102.25C101.02 11.19 100.14 10.93 99.6401 10.41C99.1301 9.89999 98.8701 9.23999 98.8701 8.42999V7.68999H101.58V7.81999C101.58 8.39999 101.85 8.58999 102.56 8.58999H108.9C109.6 8.58999 109.92 8.29999 109.92 7.78999V7.65999C109.92 7.15999 109.6 6.93999 108.9 6.93999H102.5C100.02 6.93999 98.8801 5.95999 98.8801 4.42999V2.75999C98.8801 1.97999 99.1401 1.31999 99.6301 0.78999C100.13 0.25999 101.01 -0.0100098 102.25 -0.0100098H109.16C110.39 -0.0100098 111.27 0.25999 111.77 0.78999C112.27 1.31999 112.52 1.96999 112.52 2.75999V3.49999H109.83Z" fill="#F7F7FB"/>
</svg>
