<svg width="362" height="32" viewBox="0 0 362 32" fill="none" xmlns="http://www.w3.org/2000/svg">
<path d="M0 19.26V17.08C0 14.65 1.6 13.02 4.03 13.02H20.64V12.38C20.64 10.97 20.16 10.59 19.01 10.59H1.31V5.97998H20.89C23.99 5.97998 25.85 7.60998 25.85 10.94V25.18H4.03C1.6 25.18 0 23.61 0 21.21V19.26ZM5.18 19.64C5.18 20.31 5.5 20.66 6.36 20.66H20.63V17.52H6.36C5.5 17.52 5.18 17.9 5.18 18.58V19.64Z" fill="#DAA628"/>
<path d="M28.6699 0H33.8799V5.98H50.4599C53.4399 5.98 55.3599 7.95999 55.3599 10.94V20.22C55.3599 23.2 53.4399 25.18 50.4599 25.18H28.6699V0ZM33.8799 20.57H47.7399C49.4399 20.57 50.1399 19.83 50.1399 18.33V12.83C50.1399 11.39 49.5299 10.59 47.7399 10.59H33.8799V20.57Z" fill="#DAA628"/>
<path d="M63.1602 25.1799C60.1802 25.1799 58.2002 23.1999 58.2002 20.2199V10.91C58.2002 7.92995 60.1802 5.94995 63.1602 5.94995H79.8602C83.3502 5.94995 84.8202 8.05995 84.8202 10.91V20.2199C84.8202 23.5099 83.3502 25.1799 79.8602 25.1799H63.1602ZM65.6302 10.56C64.2202 10.56 63.3902 11.4199 63.3902 12.7999V18.34C63.3902 19.72 64.2202 20.5799 65.6302 20.5799H77.3702C78.7802 20.5799 79.6402 19.72 79.6402 18.34V12.7999C79.6402 11.4199 78.7802 10.56 77.3702 10.56H65.6302Z" fill="#DAA628"/>
<path d="M92.8897 18.2C92.8897 19.48 93.4997 20.57 95.5797 20.57H106.68C108.76 20.57 109.37 19.48 109.37 18.2V5.91003H114.59V20.21C114.59 23.54 112.61 25.17 109.63 25.17H92.6397C89.6597 25.17 87.6797 23.19 87.6797 20.21V5.91003H92.8897V18.2Z" fill="#DAA628"/>
<path d="M117.47 10.59V5.98H122.46V0.380005H127.68V5.98H144.03V10.59H127.68V18.85C127.68 19.87 128.16 20.58 129.57 20.58H136.83C138.21 20.58 138.85 19.78 138.85 18.79V16.77H144.07V20.23C144.07 23.21 142.09 25.19 139.11 25.19H127.43C124.45 25.19 122.47 23.21 122.47 20.23V10.6H117.48L117.47 10.59Z" fill="#DAA628"/>
<path d="M176.76 6.00998L181.43 5.97998L187.16 19.52L192.89 5.97998H198.43L190.49 25.21H184.67L179.17 12.25L173.63 25.21H167.81L159.78 5.97998H165.35L171.05 19.52L176.78 6.01998L176.76 6.00998Z" fill="#DAA628"/>
<path d="M206.39 4.24999H201.24V0.98999H206.39V4.24999ZM206.39 25.18H201.24V5.97999H206.39V25.18Z" fill="#DAA628"/>
<path d="M214.46 25.18H209.25V0.890015H214.46V25.18Z" fill="#DAA628"/>
<path d="M243.99 0V25.18H222.2C219.22 25.18 217.27 23.2 217.27 20.22V10.94C217.27 7.95999 219.22 5.98 222.2 5.98H238.74V0H243.99ZM224.89 20.57H238.74V10.59H224.89C223.13 10.59 222.49 11.39 222.49 12.83V18.33C222.49 19.07 222.68 19.64 223.03 20.03C223.41 20.38 224.02 20.57 224.89 20.57Z" fill="#DAA628"/>
<path d="M266.52 20.57C267.9 20.57 268.54 19.77 268.54 18.78V18.33H273.69V20.22C273.69 23.2 271.71 25.18 268.73 25.18H251.77C248.79 25.18 246.81 23.2 246.81 20.22V10.94C246.81 7.95998 248.79 5.97998 251.77 5.97998H268.73C271.71 5.97998 273.69 7.95998 273.69 10.94V12.83H268.54V12.41C268.54 11.35 267.93 10.59 266.56 10.59H253.89C252.58 10.59 251.94 11.39 251.94 12.32V18.72C251.94 19.74 252.64 20.58 254.05 20.58H266.53L266.52 20.57Z" fill="#DAA628"/>
<path d="M276.54 19.26V17.08C276.54 14.65 278.14 13.02 280.57 13.02H297.18V12.38C297.18 10.97 296.7 10.59 295.55 10.59H277.86V5.97998H297.44C300.54 5.97998 302.4 7.60998 302.4 10.94V25.18H280.58C278.15 25.18 276.55 23.61 276.55 21.21V19.26H276.54ZM281.72 19.64C281.72 20.31 282.04 20.66 282.9 20.66H297.17V17.52H282.9C282.04 17.52 281.72 17.9 281.72 18.58V19.64Z" fill="#DAA628"/>
<path d="M321.27 25.18H316.05V10.59H310.42V25.18H305.21V5.97998H327.29C330.27 5.97998 332.25 7.95998 332.25 10.94V25.18H327.03V12.8C327.03 11.36 326.39 10.59 324.6 10.59H321.27V25.18Z" fill="#DAA628"/>
<path d="M335.07 31.16V5.97998H356.8C359.78 5.97998 361.76 7.95998 361.76 10.94V20.22C361.76 23.2 359.78 25.18 356.8 25.18H340.29V31.16H335.08H335.07ZM356.54 12.83C356.54 11.39 355.9 10.59 354.01 10.59H340.28V20.57H353.98C355.87 20.57 356.54 19.8 356.54 18.3V12.83Z" fill="#DAA628"/>
</svg>
