<svg width="64" height="12" viewBox="0 0 64 12" fill="none" xmlns="http://www.w3.org/2000/svg">
<path d="M11.4902 4.61002V4.51002C11.4902 3.12002 10.9602 2.62002 9.63023 2.62002H4.48023C3.14023 2.62002 2.61023 3.10002 2.61023 4.56002V6.80002C2.61023 8.06002 3.20023 8.61002 4.50023 8.61002H9.62023C10.9602 8.61002 11.4902 8.10002 11.4902 6.71002V6.63002H14.1102V6.82002C14.1102 9.64002 12.5402 11.22 9.72023 11.22H4.18023C1.49023 11.22 -0.00976562 9.70002 -0.00976562 7.01002V4.42002C-0.00976562 1.60002 1.56023 0.0200195 4.36023 0.0200195H9.72023C12.5402 0.0200195 14.1102 1.60002 14.1102 4.42002V4.61002H11.4902Z" fill="#F7F7FB"/>
<path d="M20.9004 0.0200195H24.1304L30.6104 11.22H27.2604L25.8504 8.72002H19.1404L17.7304 11.22H14.4004L20.8804 0.0200195H20.9004ZM22.5004 2.39002L20.2804 6.39002H24.7504L22.5104 2.39002H22.5004Z" fill="#F7F7FB"/>
<path d="M44.4398 0H48.4598V11.24H45.8498V2.93L41.5098 11.22H38.9298L34.6198 2.93V11.24H32.0098V0.0200005H36.0798L40.2298 7.67L44.4398 0Z" fill="#F7F7FB"/>
<path d="M49.8701 0.0200195H59.7001C61.9601 0.0200195 63.1401 0.88002 63.1401 3.11002V4.78002C63.1401 7.00002 61.9601 7.87002 59.7001 7.87002H52.4801V11.23H49.8701V0.0300179V0.0200195ZM60.5301 3.56002C60.5301 3.00002 60.2401 2.65002 59.3901 2.65002H52.4701V5.24002H59.3901C60.2901 5.24002 60.5301 4.94002 60.5301 4.28002V3.56002Z" fill="#F7F7FB"/>
</svg>
