<svg width="229" height="25" viewBox="0 0 229 25" fill="none" xmlns="http://www.w3.org/2000/svg">
<path d="M19.71 20.19C21.09 20.19 21.73 19.39 21.73 18.4V17.95H26.88V19.84C26.88 22.82 24.9 24.8 21.92 24.8H4.96C1.98 24.8 0 22.82 0 19.84V10.56C0 7.57997 1.98 5.59998 4.96 5.59998H21.92C24.9 5.59998 26.88 7.57997 26.88 10.56V12.45H21.73V12.03C21.73 10.97 21.12 10.21 19.75 10.21H7.08C5.77 10.21 5.13 11.01 5.13 11.94V18.34C5.13 19.36 5.83 20.2 7.24 20.2H19.72L19.71 20.19Z" fill="#DAA628"/>
<path d="M34.6602 24.8001C31.6802 24.8001 29.7002 22.8201 29.7002 19.8401V10.5301C29.7002 7.55006 31.6802 5.57007 34.6602 5.57007H51.3602C54.8502 5.57007 56.3202 7.68006 56.3202 10.5301V19.8401C56.3202 23.1401 54.8502 24.8001 51.3602 24.8001H34.6602ZM37.1202 10.1701C35.7102 10.1701 34.8802 11.0301 34.8802 12.4101V17.9501C34.8802 19.3301 35.7102 20.1901 37.1202 20.1901H48.8602C50.2702 20.1901 51.1302 19.3301 51.1302 17.9501V12.4101C51.1302 11.0301 50.2702 10.1701 48.8602 10.1701H37.1202Z" fill="#DAA628"/>
<path d="M64.3799 24.8H59.1699V0.51001H64.3799V24.8Z" fill="#DAA628"/>
<path d="M72.42 24.8H67.21V0.51001H72.42V24.8Z" fill="#DAA628"/>
<path d="M102.24 14.01C102.24 16.44 100.64 18.07 98.2095 18.07H80.4795V18.36C80.4795 19.74 80.9295 20.18 82.1795 20.18H102.24V24.79H80.2295C78.5995 24.79 77.3795 24.28 76.5495 23.25C75.6895 22.23 75.2695 21.07 75.2695 19.83V10.55C75.2695 7.56997 77.2195 5.58997 80.1995 5.58997H97.3195C100.26 5.58997 102.25 7.56997 102.25 10.52V14.01H102.24ZM80.4795 13.73H95.6795C96.6695 13.73 97.0195 13.31 97.0195 12.55V11.59C97.0195 10.69 96.5995 10.21 95.4795 10.21H82.2695C80.9595 10.21 80.4795 10.79 80.4795 11.91V13.73Z" fill="#DAA628"/>
<path d="M124.77 20.19C126.15 20.19 126.79 19.39 126.79 18.4V17.95H131.94V19.84C131.94 22.82 129.96 24.8 126.98 24.8H110.02C107.04 24.8 105.06 22.82 105.06 19.84V10.56C105.06 7.57997 107.04 5.59998 110.02 5.59998H126.98C129.96 5.59998 131.94 7.57997 131.94 10.56V12.45H126.79V12.03C126.79 10.97 126.18 10.21 124.81 10.21H112.14C110.83 10.21 110.19 11.01 110.19 11.94V18.34C110.19 19.36 110.89 20.2 112.3 20.2H124.78L124.77 20.19Z" fill="#DAA628"/>
<path d="M134.78 10.21V5.60001H139.77V0H144.99V5.60001H161.34V10.21H144.99V18.46C144.99 19.48 145.47 20.19 146.88 20.19H154.14C155.52 20.19 156.16 19.39 156.16 18.4V16.38H161.38V19.84C161.38 22.82 159.4 24.8 156.42 24.8H144.74C141.76 24.8 139.78 22.82 139.78 19.84V10.21H134.79H134.78Z" fill="#DAA628"/>
<path d="M169.34 3.86998H164.19V0.609985H169.34V3.86998ZM169.34 24.8H164.19V5.59999H169.34V24.8Z" fill="#DAA628"/>
<path d="M177.15 24.8001C174.17 24.8001 172.19 22.8201 172.19 19.8401V10.5301C172.19 7.55006 174.17 5.57007 177.15 5.57007H193.85C197.34 5.57007 198.81 7.68006 198.81 10.5301V19.8401C198.81 23.1401 197.34 24.8001 193.85 24.8001H177.15ZM179.61 10.1701C178.2 10.1701 177.37 11.0301 177.37 12.4101V17.9501C177.37 19.3301 178.2 20.1901 179.61 20.1901H191.35C192.76 20.1901 193.62 19.3301 193.62 17.9501V12.4101C193.62 11.0301 192.76 10.1701 191.35 10.1701H179.61Z" fill="#DAA628"/>
<path d="M206.88 24.8H201.67V5.59998H223.46C226.44 5.59998 228.42 7.57997 228.42 10.56V24.8H223.2V12.42C223.2 10.98 222.53 10.21 220.7 10.21H206.88V24.8Z" fill="#DAA628"/>
</svg>
