<svg width="144" height="25" viewBox="0 0 144 25" fill="none" xmlns="http://www.w3.org/2000/svg">
<path d="M26.97 14.02C26.97 16.45 25.37 18.08 22.94 18.08H5.21V18.37C5.21 19.75 5.66 20.19 6.91 20.19H26.97V24.8H4.96C3.33 24.8 2.11 24.29 1.28 23.26C0.419999 22.24 0 21.08 0 19.84V10.56C0 7.57998 1.95 5.59998 4.93 5.59998H22.05C24.99 5.59998 26.98 7.57997 26.98 10.53V14.02H26.97ZM5.21 13.73H20.41C21.4 13.73 21.75 13.31 21.75 12.55V11.59C21.75 10.69 21.33 10.21 20.21 10.21H7C5.69 10.21 5.21 10.79 5.21 11.91V13.73Z" fill="#DAA628"/>
<path d="M38.2095 24.8L28.7695 5.59998H34.4995L42.3095 21.37L50.1195 5.59998H55.8495L46.4395 24.8H38.2195H38.2095Z" fill="#DAA628"/>
<path d="M84.5696 14.02C84.5696 16.45 82.9696 18.08 80.5396 18.08H62.8096V18.37C62.8096 19.75 63.2596 20.19 64.5096 20.19H84.5696V24.8H62.5596C60.9296 24.8 59.7096 24.29 58.8796 23.26C58.0196 22.24 57.5996 21.08 57.5996 19.84V10.56C57.5996 7.57998 59.5496 5.59998 62.5296 5.59998H79.6496C82.5896 5.59998 84.5796 7.57997 84.5796 10.53V14.02H84.5696ZM62.8196 13.73H78.0196C79.0096 13.73 79.3596 13.31 79.3596 12.55V11.59C79.3596 10.69 78.9396 10.21 77.8196 10.21H64.6096C63.2996 10.21 62.8196 10.79 62.8196 11.91V13.73Z" fill="#DAA628"/>
<path d="M92.6104 24.8H87.4004V5.59998H109.19C112.17 5.59998 114.15 7.57998 114.15 10.56V24.8H108.93V12.42C108.93 10.98 108.26 10.21 106.43 10.21H92.6104V24.8Z" fill="#DAA628"/>
<path d="M117.02 10.21V5.60001H122.01V0H127.23V5.60001H143.58V10.21H127.23V18.47C127.23 19.49 127.71 20.2 129.12 20.2H136.38C137.76 20.2 138.4 19.4 138.4 18.41V16.39H143.62V19.85C143.62 22.83 141.64 24.81 138.66 24.81H126.98C124 24.81 122.02 22.83 122.02 19.85V10.22H117.03L117.02 10.21Z" fill="#DAA628"/>
</svg>
