<svg width="65" height="12" viewBox="0 0 65 12" fill="none" xmlns="http://www.w3.org/2000/svg">
<path d="M0 0.0100098H3.39L11.31 8.25001V0.0100098H13.9V11.21H10.68L2.6 2.79001V11.21H0V0.0100098Z" fill="#F7F7FB"/>
<path d="M17.9403 8.59001H28.2603V11.21H15.3403L15.3203 0.0100098H28.2503V2.63001H17.9303V4.29001H27.8703V6.90001H17.9303V8.58001L17.9403 8.59001Z" fill="#F7F7FB"/>
<path d="M38.1599 0.0300102L40.5399 0.0100098L43.6899 7.90001L46.2499 0.0100098H48.9999L45.0899 11.23H41.8599L39.3499 4.57001L36.8699 11.23H33.6399L29.6699 0.0100098H32.4399L35.2599 7.90001L38.1599 0.0200119V0.0300102Z" fill="#F7F7FB"/>
<path d="M61.3799 3.52V3.42C61.3799 2.86 61.0899 2.62 60.3699 2.62H54.0199C53.2999 2.62 53.0299 2.86 53.0299 3.44V3.58C53.0299 4.11 53.2999 4.33 54.0199 4.33H60.4499C62.8299 4.33 64.0699 5.26 64.0699 7V8.18C64.0699 10.18 63.0899 11.21 60.7099 11.21H53.7999C52.5699 11.21 51.6899 10.95 51.1899 10.43C50.6799 9.92 50.4199 9.26 50.4199 8.44V7.7H53.1299V7.83C53.1299 8.41 53.3999 8.6 54.1099 8.6H60.4499C61.1499 8.6 61.4699 8.31 61.4699 7.8V7.67C61.4699 7.17 61.1499 6.95 60.4499 6.95H54.0499C51.5699 6.95 50.4299 5.97 50.4299 4.44V2.77C50.4299 1.99 50.6899 1.33 51.1799 0.799999C51.6799 0.269999 52.5599 0 53.7999 0H60.7099C61.9399 0 62.8199 0.269999 63.3199 0.799999C63.8199 1.33 64.0699 1.98 64.0699 2.77V3.51H61.3799V3.52Z" fill="#F7F7FB"/>
</svg>
