<svg width="123" height="31" viewBox="0 0 123 31" fill="none" xmlns="http://www.w3.org/2000/svg">
<path d="M0 30.27V5.08997H21.73C24.71 5.08997 26.69 7.06997 26.69 10.05V19.33C26.69 22.31 24.71 24.29 21.73 24.29H5.22V30.27H0.00999832H0ZM21.47 11.94C21.47 10.5 20.83 9.69997 18.94 9.69997H5.21V19.68H18.91C20.8 19.68 21.47 18.91 21.47 17.41V11.94Z" fill="#DAA628"/>
<path d="M34.7598 24.29H29.5498V0H34.7598V24.29Z" fill="#DAA628"/>
<path d="M37.5996 18.37V16.19C37.5996 13.76 39.1996 12.13 41.6296 12.13H58.2396V11.49C58.2396 10.08 57.7596 9.69997 56.6096 9.69997H38.9196V5.08997H58.4996C61.5996 5.08997 63.4596 6.71997 63.4596 10.05V24.29H41.6396C39.2096 24.29 37.6096 22.72 37.6096 20.32V18.37H37.5996ZM42.7896 18.75C42.7896 19.42 43.1096 19.77 43.9696 19.77H58.2396V16.63H43.9696C43.1096 16.63 42.7896 17.01 42.7896 17.69V18.75Z" fill="#DAA628"/>
<path d="M85.9795 19.68C87.3595 19.68 87.9995 18.88 87.9995 17.89V17.44H93.1495V19.33C93.1495 22.31 91.1695 24.29 88.1895 24.29H71.2295C68.2495 24.29 66.2695 22.31 66.2695 19.33V10.05C66.2695 7.06997 68.2495 5.08997 71.2295 5.08997H88.1895C91.1695 5.08997 93.1495 7.06997 93.1495 10.05V11.94H87.9995V11.52C87.9995 10.46 87.3895 9.69997 86.0195 9.69997H73.3495C72.0395 9.69997 71.3995 10.5 71.3995 11.43V17.83C71.3995 18.85 72.0995 19.69 73.5095 19.69H85.9895L85.9795 19.68Z" fill="#DAA628"/>
<path d="M122.98 13.5C122.98 15.93 121.38 17.56 118.95 17.56H101.22V17.85C101.22 19.23 101.67 19.67 102.92 19.67H122.98V24.28H100.97C99.3398 24.28 98.1198 23.77 97.2898 22.74C96.4298 21.72 96.0098 20.56 96.0098 19.32V10.04C96.0098 7.05996 97.9598 5.07996 100.94 5.07996H118.06C121 5.07996 122.99 7.05996 122.99 10.01V13.5H122.98ZM101.22 13.21H116.42C117.41 13.21 117.76 12.79 117.76 12.03V11.07C117.76 10.17 117.34 9.68996 116.22 9.68996H103.01C101.7 9.68996 101.22 10.27 101.22 11.39V13.21Z" fill="#DAA628"/>
</svg>
