<svg width="596" height="130" viewBox="0 0 596 130" fill="none" xmlns="http://www.w3.org/2000/svg">
<path d="M3.24 25.2H0V0H22.21C27.68 0 29.99 2.41 29.99 6.84V8.81998C29.99 11.09 29.38 12.74 28.15 13.86C27.03 14.9 25.13 15.44 22.46 15.55L29.48 25.2H25.56L18.54 15.55H3.24V25.2ZM26.75 7.35001C26.75 4.94001 25.42 3.25 21.78 3.25H3.24V12.32H21.81C25.41 12.32 26.74 10.92 26.74 8.5V7.35001H26.75Z" fill="#F8F8FF"/>
<path d="M38.2996 21.82H64.0396V25.2H35.0596V0H64.0396V3.38H38.2996V10.9H62.8496V14.25H38.2996V21.81V21.82Z" fill="#F8F8FF"/>
<path d="M96.5101 7.31V6.94998C96.5101 4.67998 95.5401 3.23999 91.9001 3.23999H76.9601C73.3201 3.23999 72.3501 4.67998 72.3501 6.97998V7.63C72.3501 9.83 73.3201 11.01 76.9601 11.01H91.9701C97.4101 11.01 99.8201 12.92 99.8201 16.84V18.75C99.8201 23.03 97.6601 25.19 92.1901 25.19L76.7501 25.23C71.2401 25.23 69.1201 22.93 69.1201 19V17.92H72.4301V18.46C72.4301 20.94 73.4001 21.95 77.0401 21.95L91.9401 21.99C95.4301 21.99 96.5801 20.44 96.5801 18.25V17.6C96.5801 15.44 95.4301 14.22 91.9401 14.22H76.9701C71.3201 14.22 69.1201 11.99 69.1201 8.53V6.22998C69.1201 4.46998 69.7001 2.98999 70.8101 1.79999C71.9301 0.609988 73.9001 0 76.7501 0H92.1901C95.0301 0 97.0101 0.609988 98.1301 1.79999C99.2501 2.98999 99.8201 4.45998 99.8201 6.22998V7.31H96.5101Z" fill="#F8F8FF"/>
<path d="M104.9 0.0100098H127C132.08 0.0100098 134.74 1.95002 134.74 6.96002V9.48001C134.74 14.48 132.08 16.43 127 16.43H108.14V25.21H104.9V0.0100098ZM131.5 7.42001C131.5 4.97001 130.31 3.39001 126.53 3.39001H108.14V13.04H126.53C130.38 13.04 131.5 11.53 131.5 8.97003V7.42001Z" fill="#F8F8FF"/>
<path d="M143.06 21.82H168.8V25.2H139.82V0H168.8V3.38H143.06V10.9H167.61V14.25H143.06V21.81V21.82Z" fill="#F8F8FF"/>
<path d="M202.35 10.7V10.12C202.35 5.22 200.37 3.23999 195.33 3.23999H184.14C179.1 3.23999 177.12 5.10998 177.12 10.48V15.45C177.12 19.95 179.17 21.93 183.89 21.97H195.37C200.41 21.97 202.35 19.81 202.35 15.09V14.51H205.63V15.3C205.63 21.63 202.1 25.2 195.77 25.2H183.31C177.26 25.2 173.88 21.78 173.88 15.73V9.89999C173.88 3.56999 177.41 0 183.71 0H195.77C202.1 0 205.63 3.55999 205.63 9.89999V10.69H202.35V10.7Z" fill="#F8F8FF"/>
<path d="M227.12 25.2H223.92V3.23999H210.71V0H240.33V3.23999H227.12V25.2Z" fill="#F8F8FF"/>
<path d="M0 52H3.96L28.08 73.38V52H31.28V77.2H27.5L3.24 55.67V77.2H0V52Z" fill="#F8F8FF"/>
<path d="M51.9496 52H56.0196L71.5296 77.2H67.4596L62.4897 69.17H45.4296L40.4596 77.2H36.3896L51.9396 52H51.9496ZM53.9596 54.85L47.0096 66.19H60.8997L53.9496 54.85H53.9596Z" fill="#F8F8FF"/>
<path d="M84.1698 77.2H80.9698V55.24H67.7598V52H97.3798V55.24H84.1698V77.2Z" fill="#F8F8FF"/>
<path d="M133.16 69.93C133.16 74.57 130.57 77.2 125.92 77.2H109.72C105.08 77.2 102.45 74.57 102.45 69.93V52H105.69V68.85C105.69 70.29 106.05 71.48 106.81 72.41C107.57 73.35 109.01 73.81 111.13 73.81H124.48C126.6 73.81 128.04 73.34 128.8 72.41C129.56 71.47 129.92 70.29 129.92 68.85V52H133.16V69.93Z" fill="#F8F8FF"/>
<path d="M141.48 77.2H138.24V52H160.45C165.92 52 168.23 54.41 168.23 58.84V60.82C168.23 63.09 167.62 64.74 166.39 65.86C165.27 66.9 163.37 67.44 160.7 67.55L167.72 77.2H163.8L156.78 67.55H141.48V77.2ZM164.98 59.35C164.98 56.94 163.65 55.25 160.01 55.25H141.47V64.32H160.04C163.64 64.32 164.97 62.92 164.97 60.5V59.35H164.98Z" fill="#F8F8FF"/>
<path d="M176.54 73.82H202.28V77.2H173.3V52H202.28V55.38H176.54V62.9H201.09V66.25H176.54V73.81V73.82Z" fill="#F8F8FF"/>
<path d="M3.24 129.2H0V104H22.21C27.68 104 29.99 106.41 29.99 110.84V112.82C29.99 115.09 29.38 116.74 28.15 117.86C27.03 118.9 25.13 119.44 22.46 119.55L29.48 129.2H25.56L18.54 119.55H3.24V129.2ZM26.75 111.35C26.75 108.94 25.42 107.25 21.78 107.25H3.24V116.32H21.81C25.41 116.32 26.74 114.92 26.74 112.5V111.35H26.75Z" fill="#F8F8FF"/>
<path d="M38.2996 125.82H64.0396V129.2H35.0596V104H64.0396V107.38H38.2996V114.9H62.8496V118.25H38.2996V125.81V125.82Z" fill="#F8F8FF"/>
<path d="M96.5101 111.31V110.95C96.5101 108.68 95.5401 107.24 91.9001 107.24H76.9601C73.3201 107.24 72.3501 108.68 72.3501 110.98V111.63C72.3501 113.83 73.3201 115.01 76.9601 115.01H91.9701C97.4101 115.01 99.8201 116.92 99.8201 120.84V122.75C99.8201 127.03 97.6601 129.19 92.1901 129.19L76.7501 129.23C71.2401 129.23 69.1201 126.93 69.1201 123V121.92H72.4301V122.46C72.4301 124.94 73.4001 125.95 77.0401 125.95L91.9401 125.99C95.4301 125.99 96.5801 124.44 96.5801 122.25V121.6C96.5801 119.44 95.4301 118.22 91.9401 118.22H76.9701C71.3201 118.22 69.1201 115.99 69.1201 112.53V110.23C69.1201 108.47 69.7001 106.99 70.8101 105.8C71.9301 104.61 73.9001 104 76.7501 104H92.1901C95.0301 104 97.0101 104.61 98.1301 105.8C99.2501 106.99 99.8201 108.46 99.8201 110.23V111.31H96.5101Z" fill="#F8F8FF"/>
<path d="M104.9 104H127C132.08 104 134.74 105.94 134.74 110.95V113.47C134.74 118.47 132.08 120.42 127 120.42H108.14V129.2H104.9V104ZM131.5 111.42C131.5 108.97 130.31 107.39 126.53 107.39H108.14V117.04H126.53C130.38 117.04 131.5 115.53 131.5 112.97V111.42Z" fill="#F8F8FF"/>
<path d="M143.06 125.82H168.8V129.2H139.82V104H168.8V107.38H143.06V114.9H167.61V118.25H143.06V125.81V125.82Z" fill="#F8F8FF"/>
<path d="M202.35 114.7V114.12C202.35 109.22 200.37 107.24 195.33 107.24H184.14C179.1 107.24 177.12 109.11 177.12 114.48V119.45C177.12 123.95 179.17 125.93 183.89 125.97H195.37C200.41 125.97 202.35 123.81 202.35 119.09V118.51H205.63V119.3C205.63 125.63 202.1 129.2 195.77 129.2H183.31C177.26 129.2 173.88 125.78 173.88 119.73V113.9C173.88 107.57 177.41 104 183.71 104H195.77C202.1 104 205.63 107.56 205.63 113.9V114.69H202.35V114.7Z" fill="#F8F8FF"/>
<path d="M227.12 129.2H223.92V107.24H210.71V104H240.33V107.24H227.12V129.2Z" fill="#F8F8FF"/>
<path d="M266.11 125.82H291.85V129.2H262.87V104H291.85V107.38H266.11V114.9H290.66V118.25H266.11V125.81V125.82Z" fill="#F8F8FF"/>
<path d="M312.48 104H316.55L332.06 129.2H327.99L323.02 121.17H305.96L300.99 129.2H296.92L312.47 104H312.48ZM314.49 106.85L307.54 118.19H321.43L314.48 106.85H314.49Z" fill="#F8F8FF"/>
<path d="M364.75 114.7V114.12C364.75 109.22 362.77 107.24 357.73 107.24H346.54C341.5 107.24 339.52 109.11 339.52 114.48V119.45C339.52 123.95 341.57 125.93 346.29 125.97H357.77C362.81 125.97 364.75 123.81 364.75 119.09V118.51H368.03V119.3C368.03 125.63 364.5 129.2 358.17 129.2H345.71C339.66 129.2 336.28 125.78 336.28 119.73V113.9C336.28 107.57 339.81 104 346.11 104H358.17C364.5 104 368.03 107.56 368.03 113.9V114.69H364.75V114.7Z" fill="#F8F8FF"/>
<path d="M373.1 104H376.34V114.76H400.21V104H403.45V129.2H400.21V118.15H376.34V129.2H373.1V104Z" fill="#F8F8FF"/>
<path d="M433.22 129.2C428.58 129.2 425.98 126.57 425.98 121.93V111.28C425.98 106.64 428.57 104.01 433.22 104.01H450.25C454.89 104.01 457.52 106.64 457.52 111.28V121.93C457.52 126.57 454.89 129.2 450.25 129.2H433.22ZM449.09 125.82C451.11 125.82 452.47 125.35 453.19 124.45C453.91 123.55 454.27 122.43 454.27 121.07V112.07C454.27 110.74 453.91 109.62 453.23 108.72C452.55 107.82 451.18 107.39 449.13 107.39H434.48C432.39 107.39 430.99 107.86 430.3 108.76C429.58 109.66 429.22 110.81 429.22 112.22V121.11C429.22 122.48 429.58 123.59 430.3 124.49C431.02 125.39 432.39 125.82 434.4 125.82H449.09Z" fill="#F8F8FF"/>
<path d="M478.11 129.2H474.91V107.24H461.7V104H491.32V107.24H478.11V129.2Z" fill="#F8F8FF"/>
<path d="M496.4 104H499.64V114.76H523.51V104H526.75V129.2H523.51V118.15H499.64V129.2H496.4V104Z" fill="#F8F8FF"/>
<path d="M535.06 125.82H560.8V129.2H531.82V104H560.8V107.38H535.06V114.9H559.61V118.25H535.06V125.81V125.82Z" fill="#F8F8FF"/>
<path d="M569.12 129.2H565.88V104H588.09C593.56 104 595.87 106.41 595.87 110.84V112.82C595.87 115.09 595.26 116.74 594.03 117.86C592.91 118.9 591.01 119.44 588.34 119.55L595.36 129.2H591.44L584.42 119.55H569.12V129.2ZM592.63 111.35C592.63 108.94 591.3 107.25 587.66 107.25H569.12V116.32H587.69C591.29 116.32 592.62 114.92 592.62 112.5V111.35H592.63Z" fill="#F8F8FF"/>
</svg>
