<svg width="898" height="322" viewBox="0 0 898 322" fill="none" xmlns="http://www.w3.org/2000/svg">
<g filter="url(#filter0_d_140_237)">
<path d="M195.85 148.38H187.7V113.38H218.55C226.15 113.38 229.35 116.33 229.35 122.78V126.58C229.35 130.03 228.5 132.48 226.8 134.03C225.4 135.28 223.1 136.03 219.9 136.28L228.35 148.38H218.5L210.1 136.33H195.85V148.38ZM221.2 124.48C221.2 122.73 220.25 121.53 217.6 121.53H195.85V128.18H217.65C220.25 128.18 221.2 127.23 221.2 125.48V124.48Z" fill="#F7F7FB"/>
<path d="M241.9 140.18H274.15V148.38H233.8L233.75 113.38H274.15V121.58H241.9V126.78H272.95V134.93H241.9V140.18Z" fill="#F7F7FB"/>
<path d="M312.85 124.33V124.03C312.85 122.28 311.95 121.53 309.7 121.53H289.85C287.6 121.53 286.75 122.28 286.75 124.08V124.53C286.75 126.18 287.6 126.88 289.85 126.88H309.95C317.4 126.88 321.25 129.78 321.25 135.23V138.93C321.25 145.18 318.2 148.38 310.75 148.38H289.15C285.3 148.38 282.55 147.58 281 145.93C279.4 144.33 278.6 142.28 278.6 139.73V137.43H287.05V137.83C287.05 139.63 287.9 140.23 290.1 140.23H309.9C312.1 140.23 313.1 139.33 313.1 137.73V137.33C313.1 135.78 312.1 135.08 309.9 135.08H289.9C282.15 135.08 278.6 132.03 278.6 127.23V122.03C278.6 119.58 279.4 117.53 280.95 115.88C282.5 114.23 285.25 113.38 289.15 113.38H310.75C314.6 113.38 317.35 114.23 318.9 115.88C320.45 117.53 321.25 119.58 321.25 122.03V124.33H312.85Z" fill="#F7F7FB"/>
<path d="M325.7 113.38H356.4C363.45 113.38 367.15 116.08 367.15 123.03V128.23C367.15 135.18 363.45 137.88 356.4 137.88H333.85V148.38H325.7V113.38ZM359 124.43C359 122.68 358.1 121.58 355.45 121.58H333.85V129.68H355.45C358.25 129.68 359 128.73 359 126.68V124.43Z" fill="#F7F7FB"/>
<path d="M379.7 140.18H411.95V148.38H371.6L371.55 113.38H411.95V121.58H379.7V126.78H410.75V134.93H379.7V140.18Z" fill="#F7F7FB"/>
<path d="M452.3 127.73V127.43C452.3 123.08 450.65 121.53 446.5 121.53H430.4C426.2 121.53 424.55 123.03 424.55 127.58V134.58C424.55 138.53 426.4 140.23 430.45 140.23H446.45C450.65 140.23 452.3 138.63 452.3 134.28V134.03H460.5V134.63C460.5 143.43 455.6 148.38 446.8 148.38H429.5C421.1 148.38 416.4 143.63 416.4 135.23V127.13C416.4 118.33 421.3 113.38 430.05 113.38H446.8C455.6 113.38 460.5 118.33 460.5 127.13V127.73H452.3Z" fill="#F7F7FB"/>
<path d="M489.55 148.38H481.4V121.53H464.9V113.38H506.05V121.53H489.55V148.38Z" fill="#F7F7FB"/>
<path d="M530.6 113.38H541.2L565.95 139.13V113.38H574.05V148.38H564L538.75 122.08V148.38H530.6V113.38Z" fill="#F7F7FB"/>
<path d="M598.75 113.38H608.85L629.1 148.38H618.65L614.25 140.58H593.3L588.9 148.38H578.5L598.75 113.38ZM603.75 120.78L596.8 133.28H610.75L603.75 120.78Z" fill="#F7F7FB"/>
<path d="M647 148.38H638.85V121.53H622.35V113.38H663.5V121.53H647V148.38Z" fill="#F7F7FB"/>
<path d="M710.55 138.28C710.55 144.73 706.95 148.38 700.5 148.38H678C671.55 148.38 667.9 144.73 667.9 138.28V113.38H676.05V134.93C676.05 137.98 677.3 140.18 681.75 140.18H696.7C701.15 140.18 702.4 137.98 702.4 134.93V113.38H710.55V138.28Z" fill="#F7F7FB"/>
<path d="M723.1 148.38H714.95V113.38H745.8C753.4 113.38 756.6 116.33 756.6 122.78V126.58C756.6 130.03 755.75 132.48 754.05 134.03C752.65 135.28 750.35 136.03 747.15 136.28L755.6 148.38H745.75L737.35 136.33H723.1V148.38ZM748.45 124.48C748.45 122.73 747.5 121.53 744.85 121.53H723.1V128.18H744.9C747.5 128.18 748.45 127.23 748.45 125.48V124.48Z" fill="#F7F7FB"/>
<path d="M769.15 140.18H801.4V148.38H761.05L761 113.38H801.4V121.58H769.15V126.78H800.2V134.93H769.15V140.18Z" fill="#F7F7FB"/>
<path d="M29.15 208.38H21V173.38H51.85C59.45 173.38 62.65 176.33 62.65 182.78V186.58C62.65 190.03 61.8 192.48 60.1 194.03C58.7 195.28 56.4 196.03 53.2 196.28L61.65 208.38H51.8L43.4 196.33H29.15V208.38ZM54.5 184.48C54.5 182.73 53.55 181.53 50.9 181.53H29.15V188.18H50.95C53.55 188.18 54.5 187.23 54.5 185.48V184.48Z" fill="#F7F7FB"/>
<path d="M75.1998 200.18H107.45V208.38H67.0998L67.0498 173.38H107.45V181.58H75.1998V186.78H106.25V194.93H75.1998V200.18Z" fill="#F7F7FB"/>
<path d="M146.15 184.33V184.03C146.15 182.28 145.25 181.53 143 181.53H123.15C120.9 181.53 120.05 182.28 120.05 184.08V184.53C120.05 186.18 120.9 186.88 123.15 186.88H143.25C150.7 186.88 154.55 189.78 154.55 195.23V198.93C154.55 205.18 151.5 208.38 144.05 208.38H122.45C118.6 208.38 115.85 207.58 114.3 205.93C112.7 204.33 111.9 202.28 111.9 199.73V197.43H120.35V197.83C120.35 199.63 121.2 200.23 123.4 200.23H143.2C145.4 200.23 146.4 199.33 146.4 197.73V197.33C146.4 195.78 145.4 195.08 143.2 195.08H123.2C115.45 195.08 111.9 192.03 111.9 187.23V182.03C111.9 179.58 112.7 177.53 114.25 175.88C115.8 174.23 118.55 173.38 122.45 173.38H144.05C147.9 173.38 150.65 174.23 152.2 175.88C153.75 177.53 154.55 179.58 154.55 182.03V184.33H146.15Z" fill="#F7F7FB"/>
<path d="M159 173.38H189.7C196.75 173.38 200.45 176.08 200.45 183.03V188.23C200.45 195.18 196.75 197.88 189.7 197.88H167.15V208.38H159V173.38ZM192.3 184.43C192.3 182.68 191.4 181.58 188.75 181.58H167.15V189.68H188.75C191.55 189.68 192.3 188.73 192.3 186.68V184.43Z" fill="#F7F7FB"/>
<path d="M213 200.18H245.25V208.38H204.9L204.85 173.38H245.25V181.58H213V186.78H244.05V194.93H213V200.18Z" fill="#F7F7FB"/>
<path d="M285.6 187.73V187.43C285.6 183.08 283.95 181.53 279.8 181.53H263.7C259.5 181.53 257.85 183.03 257.85 187.58V194.58C257.85 198.53 259.7 200.23 263.75 200.23H279.75C283.95 200.23 285.6 198.63 285.6 194.28V194.03H293.8V194.63C293.8 203.43 288.9 208.38 280.1 208.38H262.8C254.4 208.38 249.7 203.63 249.7 195.23V187.13C249.7 178.33 254.6 173.38 263.35 173.38H280.1C288.9 173.38 293.8 178.33 293.8 187.13V187.73H285.6Z" fill="#F7F7FB"/>
<path d="M322.85 208.38H314.7V181.53H298.2V173.38H339.35V181.53H322.85V208.38Z" fill="#F7F7FB"/>
<path d="M372.05 200.18H404.3V208.38H363.95L363.9 173.38H404.3V181.58H372.05V186.78H403.1V194.93H372.05V200.18Z" fill="#F7F7FB"/>
<path d="M429 173.38H439.1L459.35 208.38H448.9L444.5 200.58H423.55L419.15 208.38H408.75L429 173.38ZM434 180.78L427.05 193.28H441L434 180.78Z" fill="#F7F7FB"/>
<path d="M496.6 187.73V187.43C496.6 183.08 494.95 181.53 490.8 181.53H474.7C470.5 181.53 468.85 183.03 468.85 187.58V194.58C468.85 198.53 470.7 200.23 474.75 200.23H490.75C494.95 200.23 496.6 198.63 496.6 194.28V194.03H504.8V194.63C504.8 203.43 499.9 208.38 491.1 208.38H473.8C465.4 208.38 460.7 203.63 460.7 195.23V187.13C460.7 178.33 465.6 173.38 474.35 173.38H491.1C499.9 173.38 504.8 178.33 504.8 187.13V187.73H496.6Z" fill="#F7F7FB"/>
<path d="M509.2 173.38H517.35V186.33H543.2V173.38H551.35V208.38H543.2V194.53H517.35V208.38H509.2V173.38Z" fill="#F7F7FB"/>
<path d="M585.95 208.38C579.5 208.38 575.9 204.73 575.9 198.28V183.48C575.9 177.03 579.5 173.38 585.95 173.38H609.6C616.05 173.38 619.7 177.03 619.7 183.48V198.28C619.7 204.73 616.05 208.38 609.6 208.38H585.95ZM606.6 200.23C610.45 200.23 611.55 198.28 611.55 195.68V185.88C611.55 183.43 610.6 181.53 606.8 181.53H589.25C585.1 181.53 584.05 183.53 584.05 186.28V195.78C584.05 198.33 585.15 200.23 588.9 200.23H606.6Z" fill="#F7F7FB"/>
<path d="M647.5 208.38H639.35V181.53H622.85V173.38H664V181.53H647.5V208.38Z" fill="#F7F7FB"/>
<path d="M668.4 173.38H676.55V186.33H702.4V173.38H710.55V208.38H702.4V194.53H676.55V208.38H668.4V173.38Z" fill="#F7F7FB"/>
<path d="M723.1 200.18H755.35V208.38H715L714.95 173.38H755.35V181.58H723.1V186.78H754.15V194.93H723.1V200.18Z" fill="#F7F7FB"/>
<path d="M767.95 208.38H759.8V173.38H790.65C798.25 173.38 801.45 176.33 801.45 182.78V186.58C801.45 190.03 800.6 192.48 798.9 194.03C797.5 195.28 795.2 196.03 792 196.28L800.45 208.38H790.6L782.2 196.33H767.95V208.38ZM793.3 184.48C793.3 182.73 792.35 181.53 789.7 181.53H767.95V188.18H789.75C792.35 188.18 793.3 187.23 793.3 185.48V184.48Z" fill="#F7F7FB"/>
</g>
<defs>
<filter id="filter0_d_140_237" x="-92.38" y="-0.000114441" width="1007.21" height="321.76" filterUnits="userSpaceOnUse" color-interpolation-filters="sRGB">
<feFlood flood-opacity="0" result="BackgroundImageFix"/>
<feColorMatrix in="SourceAlpha" type="matrix" values="0 0 0 0 0 0 0 0 0 0 0 0 0 0 0 0 0 0 127 0" result="hardAlpha"/>
<feOffset/>
<feGaussianBlur stdDeviation="56.69"/>
<feColorMatrix type="matrix" values="0 0 0 0 0.137255 0 0 0 0 0.121569 0 0 0 0 0.12549 0 0 0 0.25 0"/>
<feBlend mode="normal" in2="BackgroundImageFix" result="effect1_dropShadow_140_237"/>
<feBlend mode="normal" in="SourceGraphic" in2="effect1_dropShadow_140_237" result="shape"/>
</filter>
</defs>
</svg>
