<svg width="781" height="95" viewBox="0 0 781 95" fill="none" xmlns="http://www.w3.org/2000/svg">
<g clip-path="url(#clip0_112_88)">
<path d="M174.85 35H166.7V0H197.55C205.15 0 208.35 2.95 208.35 9.4V13.2C208.35 16.65 207.5 19.1 205.8 20.65C204.4 21.9 202.1 22.65 198.9 22.9L207.35 35H197.5L189.1 22.95H174.85V35ZM200.2 11.1C200.2 9.35 199.25 8.15 196.6 8.15H174.85V14.8H196.65C199.25 14.8 200.2 13.85 200.2 12.1V11.1Z" fill="#F7F7FB"/>
<path d="M220.9 26.8H253.15V35H212.8L212.75 0H253.15V8.2H220.9V13.4H251.95V21.55H220.9V26.8Z" fill="#F7F7FB"/>
<path d="M291.85 10.95V10.65C291.85 8.9 290.95 8.15 288.7 8.15H268.85C266.6 8.15 265.75 8.9 265.75 10.7V11.15C265.75 12.8 266.6 13.5 268.85 13.5H288.95C296.4 13.5 300.25 16.4 300.25 21.85V25.55C300.25 31.8 297.2 35 289.75 35H268.15C264.3 35 261.55 34.2 260 32.55C258.4 30.95 257.6 28.9 257.6 26.35V24.05H266.05V24.45C266.05 26.25 266.9 26.85 269.1 26.85H288.9C291.1 26.85 292.1 25.95 292.1 24.35V23.95C292.1 22.4 291.1 21.7 288.9 21.7H268.9C261.15 21.7 257.6 18.65 257.6 13.85V8.65C257.6 6.2 258.4 4.15 259.95 2.5C261.5 0.85 264.25 0 268.15 0H289.75C293.6 0 296.35 0.85 297.9 2.5C299.45 4.15 300.25 6.2 300.25 8.65V10.95H291.85Z" fill="#F7F7FB"/>
<path d="M304.7 0H335.4C342.45 0 346.15 2.7 346.15 9.65V14.85C346.15 21.8 342.45 24.5 335.4 24.5H312.85V35H304.7V0ZM338 11.05C338 9.3 337.1 8.2 334.45 8.2H312.85V16.3H334.45C337.25 16.3 338 15.35 338 13.3V11.05Z" fill="#F7F7FB"/>
<path d="M358.7 26.8H390.95V35H350.6L350.55 0H390.95V8.2H358.7V13.4H389.75V21.55H358.7V26.8Z" fill="#F7F7FB"/>
<path d="M431.3 14.35V14.05C431.3 9.7 429.65 8.15 425.5 8.15H409.4C405.2 8.15 403.55 9.65 403.55 14.2V21.2C403.55 25.15 405.4 26.85 409.45 26.85H425.45C429.65 26.85 431.3 25.25 431.3 20.9V20.65H439.5V21.25C439.5 30.05 434.6 35 425.8 35H408.5C400.1 35 395.4 30.25 395.4 21.85V13.75C395.4 4.95 400.3 0 409.05 0H425.8C434.6 0 439.5 4.95 439.5 13.75V14.35H431.3Z" fill="#F7F7FB"/>
<path d="M468.55 35H460.4V8.15H443.9V0H485.05V8.15H468.55V35Z" fill="#F7F7FB"/>
<path d="M509.6 0H520.2L544.95 25.75V0H553.05V35H543L517.75 8.7V35H509.6V0Z" fill="#F7F7FB"/>
<path d="M577.75 0H587.85L608.1 35H597.65L593.25 27.2H572.3L567.9 35H557.5L577.75 0ZM582.75 7.4L575.8 19.9H589.75L582.75 7.4Z" fill="#F7F7FB"/>
<path d="M626 35H617.85V8.15H601.35V0H642.5V8.15H626V35Z" fill="#F7F7FB"/>
<path d="M689.55 24.9C689.55 31.35 685.95 35 679.5 35H657C650.55 35 646.9 31.35 646.9 24.9V0H655.05V21.55C655.05 24.6 656.3 26.8 660.75 26.8H675.7C680.15 26.8 681.4 24.6 681.4 21.55V0H689.55V24.9Z" fill="#F7F7FB"/>
<path d="M702.1 35H693.95V0H724.8C732.4 0 735.6 2.95 735.6 9.4V13.2C735.6 16.65 734.75 19.1 733.05 20.65C731.65 21.9 729.35 22.65 726.15 22.9L734.6 35H724.75L716.35 22.95H702.1V35ZM727.45 11.1C727.45 9.35 726.5 8.15 723.85 8.15H702.1V14.8H723.9C726.5 14.8 727.45 13.85 727.45 12.1V11.1Z" fill="#F7F7FB"/>
<path d="M748.15 26.8H780.4V35H740.05L740 0H780.4V8.2H748.15V13.4H779.2V21.55H748.15V26.8Z" fill="#F7F7FB"/>
<path d="M8.15 95H0V60H30.85C38.45 60 41.65 62.95 41.65 69.4V73.2C41.65 76.65 40.8 79.1 39.1 80.65C37.7 81.9 35.4 82.65 32.2 82.9L40.65 95H30.8L22.4 82.95H8.15V95ZM33.5 71.1C33.5 69.35 32.55 68.15 29.9 68.15H8.15V74.8H29.95C32.55 74.8 33.5 73.85 33.5 72.1V71.1Z" fill="#F7F7FB"/>
<path d="M54.1998 86.8H86.4498V95H46.0998L46.0498 60H86.4498V68.2H54.1998V73.4H85.2498V81.55H54.1998V86.8Z" fill="#F7F7FB"/>
<path d="M125.15 70.95V70.65C125.15 68.9 124.25 68.15 122 68.15H102.15C99.9004 68.15 99.0504 68.9 99.0504 70.7V71.15C99.0504 72.8 99.9004 73.5 102.15 73.5H122.25C129.7 73.5 133.55 76.4 133.55 81.85V85.55C133.55 91.8 130.5 95 123.05 95H101.45C97.6004 95 94.8504 94.2 93.3004 92.55C91.7004 90.95 90.9004 88.9 90.9004 86.35V84.05H99.3504V84.45C99.3504 86.25 100.2 86.85 102.4 86.85H122.2C124.4 86.85 125.4 85.95 125.4 84.35V83.95C125.4 82.4 124.4 81.7 122.2 81.7H102.2C94.4504 81.7 90.9004 78.65 90.9004 73.85V68.65C90.9004 66.2 91.7004 64.15 93.2504 62.5C94.8004 60.85 97.5504 60 101.45 60H123.05C126.9 60 129.65 60.85 131.2 62.5C132.75 64.15 133.55 66.2 133.55 68.65V70.95H125.15Z" fill="#F7F7FB"/>
<path d="M138 60H168.7C175.75 60 179.45 62.7 179.45 69.65V74.85C179.45 81.8 175.75 84.5 168.7 84.5H146.15V95H138V60ZM171.3 71.05C171.3 69.3 170.4 68.2 167.75 68.2H146.15V76.3H167.75C170.55 76.3 171.3 75.35 171.3 73.3V71.05Z" fill="#F7F7FB"/>
<path d="M192 86.8H224.25V95H183.9L183.85 60H224.25V68.2H192V73.4H223.05V81.55H192V86.8Z" fill="#F7F7FB"/>
<path d="M264.6 74.35V74.05C264.6 69.7 262.95 68.15 258.8 68.15H242.7C238.5 68.15 236.85 69.65 236.85 74.2V81.2C236.85 85.15 238.7 86.85 242.75 86.85H258.75C262.95 86.85 264.6 85.25 264.6 80.9V80.65H272.8V81.25C272.8 90.05 267.9 95 259.1 95H241.8C233.4 95 228.7 90.25 228.7 81.85V73.75C228.7 64.95 233.6 60 242.35 60H259.1C267.9 60 272.8 64.95 272.8 73.75V74.35H264.6Z" fill="#F7F7FB"/>
<path d="M301.85 95H293.7V68.15H277.2V60H318.35V68.15H301.85V95Z" fill="#F7F7FB"/>
<path d="M351.05 86.8H383.3V95H342.95L342.9 60H383.3V68.2H351.05V73.4H382.1V81.55H351.05V86.8Z" fill="#F7F7FB"/>
<path d="M408 60H418.1L438.35 95H427.9L423.5 87.2H402.55L398.15 95H387.75L408 60ZM413 67.4L406.05 79.9H420L413 67.4Z" fill="#F7F7FB"/>
<path d="M475.6 74.35V74.05C475.6 69.7 473.95 68.15 469.8 68.15H453.7C449.5 68.15 447.85 69.65 447.85 74.2V81.2C447.85 85.15 449.7 86.85 453.75 86.85H469.75C473.95 86.85 475.6 85.25 475.6 80.9V80.65H483.8V81.25C483.8 90.05 478.9 95 470.1 95H452.8C444.4 95 439.7 90.25 439.7 81.85V73.75C439.7 64.95 444.6 60 453.35 60H470.1C478.9 60 483.8 64.95 483.8 73.75V74.35H475.6Z" fill="#F7F7FB"/>
<path d="M488.19 60H496.34V72.95H522.19V60H530.34V95H522.19V81.15H496.34V95H488.19V60Z" fill="#F7F7FB"/>
<path d="M564.95 95C558.5 95 554.9 91.35 554.9 84.9V70.1C554.9 63.65 558.5 60 564.95 60H588.6C595.05 60 598.7 63.65 598.7 70.1V84.9C598.7 91.35 595.05 95 588.6 95H564.95ZM585.6 86.85C589.45 86.85 590.55 84.9 590.55 82.3V72.5C590.55 70.05 589.6 68.15 585.8 68.15H568.25C564.1 68.15 563.05 70.15 563.05 72.9V82.4C563.05 84.95 564.15 86.85 567.9 86.85H585.6Z" fill="#F7F7FB"/>
<path d="M626.5 95H618.35V68.15H601.85V60H643V68.15H626.5V95Z" fill="#F7F7FB"/>
<path d="M647.39 60H655.54V72.95H681.39V60H689.54V95H681.39V81.15H655.54V95H647.39V60Z" fill="#F7F7FB"/>
<path d="M702.09 86.8H734.34V95H693.99L693.94 60H734.34V68.2H702.09V73.4H733.14V81.55H702.09V86.8Z" fill="#F7F7FB"/>
<path d="M746.94 95H738.79V60H769.64C777.24 60 780.44 62.95 780.44 69.4V73.2C780.44 76.65 779.59 79.1 777.89 80.65C776.49 81.9 774.19 82.65 770.99 82.9L779.44 95H769.59L761.19 82.95H746.94V95ZM772.3 71.1C772.3 69.35 771.35 68.15 768.7 68.15H746.95V74.8H768.75C771.35 74.8 772.3 73.85 772.3 72.1V71.1Z" fill="#F7F7FB"/>
</g>
<defs>
<clipPath id="clip0_112_88">
<rect width="780.45" height="95" fill="white"/>
</clipPath>
</defs>
</svg>
