<svg width="73" height="12" viewBox="0 0 73 12" fill="none" xmlns="http://www.w3.org/2000/svg">
<path d="M10.96 3.52V3.42C10.96 2.86 10.67 2.62 9.95 2.62H3.6C2.88 2.62 2.61 2.86 2.61 3.44V3.58C2.61 4.11 2.88 4.33 3.6 4.33H10.03C12.41 4.33 13.65 5.26 13.65 7V8.18C13.65 10.18 12.67 11.21 10.29 11.21H3.38C2.15 11.21 1.27 10.95 0.77 10.43C0.26 9.92 0 9.26 0 8.44V7.7H2.71V7.83C2.71 8.41 2.98 8.6 3.69 8.6H10.03C10.73 8.6 11.05 8.31 11.05 7.8V7.67C11.05 7.17 10.73 6.95 10.03 6.95H3.62C1.14 6.95 0 5.97 0 4.44V2.77C0 1.99 0.26 1.33 0.75 0.799999C1.25 0.269999 2.13 0 3.37 0H10.28C11.51 0 12.39 0.269999 12.89 0.799999C13.39 1.33 13.64 1.98 13.64 2.77V3.51H10.95L10.96 3.52Z" fill="#F7F7FB"/>
<path d="M22.7396 11.21H20.1296V2.61H14.8496V0H28.0196V2.61H22.7396V11.21Z" fill="#F7F7FB"/>
<path d="M32.2395 11.21C30.1695 11.21 29.0195 10.04 29.0195 7.98001V3.24001C29.0195 1.18001 30.1695 0.0100098 32.2395 0.0100098H39.8095C41.8795 0.0100098 43.0395 1.18001 43.0395 3.24001V7.98001C43.0395 10.04 41.8695 11.21 39.8095 11.21H32.2395ZM38.8495 8.60001C40.0795 8.60001 40.4295 7.98001 40.4295 7.14001V4.00001C40.4295 3.22001 40.1295 2.61001 38.9095 2.61001H33.2895C31.9595 2.61001 31.6295 3.25001 31.6295 4.13001V7.17001C31.6295 7.99001 31.9795 8.59001 33.1795 8.59001H38.8495V8.60001Z" fill="#F7F7FB"/>
<path d="M47.0602 11.21H44.4502V0.0100098H54.3302C56.7602 0.0100098 57.7902 0.950008 57.7902 3.02001V4.24001C57.7902 5.34001 57.5202 6.13001 56.9702 6.62001C56.5202 7.02001 55.7902 7.26001 54.7602 7.34001L57.4702 11.21H54.3202L51.6302 7.35001H47.0702V11.21H47.0602ZM55.1702 3.56001C55.1702 3.00001 54.8702 2.62001 54.0202 2.62001H47.0602V4.75001H54.0402C54.8702 4.75001 55.1802 4.45001 55.1802 3.89001V3.57001L55.1702 3.56001Z" fill="#F7F7FB"/>
<path d="M61.7899 8.59001H72.1099V11.21H59.1899L59.1699 0.0100098H72.0999V2.63001H61.7799V4.29001H71.7199V6.90001H61.7799V8.58001L61.7899 8.59001Z" fill="#F7F7FB"/>
</svg>
