<svg width="224" height="22" viewBox="0 0 224 22" fill="none" xmlns="http://www.w3.org/2000/svg">
<path d="M16.23 0.0600281L20.04 0.0300293L26.49 15.84L31.83 0.0300293H36.24L28.8 21.06H23.58L18.15 7.17001L12.75 21.06H7.56001L0 0.0300293H4.41L10.17 15.84L16.23 0.0600281Z" fill="#DAA628"/>
<path d="M43.5297 21.03H39.3896V0.0300293H43.5297V21.03Z" fill="#DAA628"/>
<path d="M50.8802 16.8H71.8802V21.03H46.7402V0.0300293H50.8802V16.8Z" fill="#DAA628"/>
<path d="M75.0303 0.0300293H93.2103C97.8003 0.0300293 100.2 2.55002 100.2 7.02002V14.04C100.2 18.51 97.8003 21.03 93.2103 21.03H75.0303V0.0300293ZM96.0303 8.04001C96.0303 5.79001 94.9803 4.26001 91.6503 4.26001H79.1703V16.8H91.6503C94.9803 16.8 96.0303 15.27 96.0303 13.02V8.04001Z" fill="#DAA628"/>
<path d="M125.64 8.73001V8.46002C125.64 5.37002 124.44 4.20001 121.35 4.20001H111.81C108.72 4.20001 107.52 5.34002 107.52 8.61002V12.81C107.52 15.6 108.84 16.86 111.75 16.86H121.35C124.44 16.86 125.64 15.6 125.64 12.6V12.33H129.81V12.78C129.81 18.06 126.87 21.03 121.59 21.03H111.21C106.17 21.03 103.35 18.18 103.35 13.14V8.28003C103.35 3.00003 106.29 0.0300293 111.54 0.0300293H121.59C126.87 0.0300293 129.81 3.00003 129.81 8.28003V8.73001H125.64Z" fill="#DAA628"/>
<path d="M143.73 0.0300293H148.89L161.31 21.03H156L152.85 15.69H139.74L136.59 21.03H131.31L143.73 0.0300293ZM146.31 3.78003L141.57 11.91H151.02L146.31 3.78003Z" fill="#DAA628"/>
<path d="M189.03 0H195.3V21.06H191.13V4.79999L181.86 21.03H177.84L168.63 4.79999V21.06H164.49V0.0299988H170.85L179.85 15.39L189.03 0Z" fill="#DAA628"/>
<path d="M198.48 0.0300293H216.9C221.13 0.0300293 223.35 1.65001 223.35 5.82001V8.61002C223.35 12.78 221.13 14.4 216.9 14.4H202.62V21.03H198.48V0.0300293ZM219.18 6.51001C219.18 5.16001 218.52 4.26001 216.36 4.26001H202.62V10.17H216.39C218.55 10.17 219.18 9.39002 219.18 7.83002V6.51001Z" fill="#DAA628"/>
</svg>
