<svg width="145" height="26" viewBox="0 0 145 26" fill="none" xmlns="http://www.w3.org/2000/svg">
<path d="M-0.00042963 21.12V19.264V17.088C-0.00042963 14.656 1.59957 13.024 4.03157 13.024H20.6396V12.384C20.6396 10.976 20.1596 10.592 19.0076 10.592H1.31157V5.98402H20.8956C23.9996 5.98402 25.8556 7.61602 25.8556 10.944V25.184H4.03157C1.59957 25.184 -0.00042963 23.616 -0.00042963 21.216V21.12ZM5.18357 18.592V19.648C5.18357 20.32 5.50357 20.672 6.36757 20.672H20.6396V17.536H6.36757C5.50357 17.536 5.18357 17.92 5.18357 18.592ZM28.6863 25.184V1.90735e-05H33.9023V5.98402H50.4783C53.4543 5.98402 55.3743 7.96802 55.3743 10.944V20.224C55.3743 23.2 53.4543 25.184 50.4783 25.184H28.6863ZM33.9023 10.592V20.576H47.7583C49.4543 20.576 50.1583 19.84 50.1583 18.336V12.832C50.1583 11.392 49.5503 10.592 47.7583 10.592H33.9023ZM77.3856 10.56H65.6416C64.2336 10.56 63.4016 11.424 63.4016 12.8V18.336C63.4016 19.712 64.2336 20.576 65.6416 20.576H77.3856C78.7936 20.576 79.6576 19.712 79.6576 18.336V12.8C79.6576 11.424 78.7936 10.56 77.3856 10.56ZM79.8816 25.184H63.1776C60.2016 25.184 58.2176 23.2 58.2176 20.224V10.912C58.2176 7.93602 60.2016 5.95202 63.1776 5.95202H79.8816C83.3696 5.95202 84.8416 8.06402 84.8416 10.912V20.224C84.8416 23.52 83.3696 25.184 79.8816 25.184ZM92.9023 5.92002V18.208C92.9023 19.488 93.5103 20.576 95.5903 20.576H106.694C108.774 20.576 109.382 19.488 109.382 18.208V5.92002H114.598V20.224C114.598 23.552 112.614 25.184 109.638 25.184H92.6463C89.6703 25.184 87.6863 23.2 87.6863 20.224V5.92002H92.9023ZM122.46 10.592H117.468V5.98402H122.46V0.38402H127.676V5.98402H144.028V10.592H127.676V18.848C127.676 19.872 128.156 20.576 129.564 20.576H136.828C138.204 20.576 138.844 19.776 138.844 18.784V16.768H144.06V20.224C144.06 23.2 142.076 25.184 139.1 25.184H127.42C124.444 25.184 122.46 23.2 122.46 20.224V10.592Z" fill="#DAA520"/>
</svg>
