<svg width="115" height="26" viewBox="0 0 115 26" fill="none" xmlns="http://www.w3.org/2000/svg">
<path d="M19.7118 14.592C20.3945 14.592 20.8958 14.4213 21.2158 14.08C21.5571 13.7173 21.7278 13.2907 21.7278 12.8V12.352H26.8798V14.24C26.8798 15.7333 26.4211 16.9387 25.5038 17.856C24.6078 18.752 23.4131 19.2 21.9198 19.2H4.9598C3.46646 19.2 2.26113 18.752 1.3438 17.856C0.447797 16.9387 -0.000203013 15.7333 -0.000203013 14.24V4.96001C-0.000203013 3.46668 0.447797 2.27201 1.3438 1.37601C2.26113 0.458678 3.46646 1.14441e-05 4.9598 1.14441e-05H21.9198C23.4131 1.14441e-05 24.6078 0.458678 25.5038 1.37601C26.4211 2.27201 26.8798 3.46668 26.8798 4.96001V6.84801H21.7278V6.43201C21.7278 5.89868 21.5678 5.46134 21.2478 5.12001C20.9278 4.77868 20.4265 4.60801 19.7438 4.60801H7.0718C6.41046 4.60801 5.9198 4.77868 5.5998 5.12001C5.2798 5.46134 5.1198 5.86668 5.1198 6.33601V12.736C5.1198 13.248 5.29046 13.6853 5.6318 14.048C5.99446 14.4107 6.5278 14.592 7.2318 14.592H19.7118ZM29.7193 13.28V11.104C29.7193 9.88801 30.082 8.90668 30.8073 8.16001C31.554 7.41334 32.5353 7.04001 33.7513 7.04001H50.3593V6.40001C50.3593 5.69601 50.2313 5.22668 49.9753 4.99201C49.7193 4.73601 49.3033 4.60801 48.7273 4.60801H31.0313V1.14441e-05H50.6153C52.1726 1.14441e-05 53.3886 0.416011 54.2633 1.24801C55.138 2.05868 55.5753 3.29601 55.5753 4.96001V19.2H33.7513C32.5353 19.2 31.554 18.8373 30.8073 18.112C30.082 17.3867 29.7193 16.4267 29.7193 15.232C29.7193 15.2107 29.7193 15.1787 29.7193 15.136V13.28ZM34.9033 13.664C34.9033 14.0053 34.9886 14.2613 35.1593 14.432C35.3513 14.6027 35.6606 14.688 36.0873 14.688H50.3593V11.552H36.0873C35.6606 11.552 35.3513 11.648 35.1593 11.84C34.9886 12.0107 34.9033 12.2667 34.9033 12.608V13.664ZM74.47 19.2H69.254V4.60801H63.622V19.2H58.406V1.14441e-05H80.486C81.9794 1.14441e-05 83.174 0.458678 84.07 1.37601C84.9874 2.27201 85.446 3.46668 85.446 4.96001V19.2H80.23V6.81601C80.23 6.09068 80.0487 5.54668 79.686 5.18401C79.3234 4.80001 78.694 4.60801 77.798 4.60801H74.47V19.2ZM88.2498 25.184V1.14441e-05H109.978C111.471 1.14441e-05 112.666 0.458678 113.562 1.37601C114.479 2.27201 114.938 3.46668 114.938 4.96001V14.24C114.938 15.7333 114.479 16.9387 113.562 17.856C112.666 18.752 111.471 19.2 109.978 19.2H93.4658V25.184H88.2498ZM109.722 6.84801C109.722 6.12268 109.53 5.56801 109.146 5.18401C108.783 4.80001 108.132 4.60801 107.194 4.60801H93.4658V14.592H107.162C108.1 14.592 108.762 14.4 109.146 14.016C109.53 13.632 109.722 13.0667 109.722 12.32V6.84801Z" fill="#DAA520"/>
</svg>
