<svg width="153" height="32" viewBox="0 0 153 32" fill="none" xmlns="http://www.w3.org/2000/svg">
<path d="M21.9198 8.896V8.704C21.9198 8.14933 21.7598 7.744 21.4398 7.488C21.1411 7.232 20.6291 7.104 19.9038 7.104H7.1998C6.47446 7.104 5.96246 7.232 5.6638 7.488C5.36513 7.744 5.2158 8.16 5.2158 8.736V9.024C5.2158 9.55733 5.36513 9.94133 5.6638 10.176C5.96246 10.4107 6.47446 10.528 7.1998 10.528H20.0638C22.4531 10.528 24.2558 10.9867 25.4718 11.904C26.6878 12.8 27.2958 14.1227 27.2958 15.872V18.24C27.2958 20.2453 26.7731 21.76 25.7278 22.784C24.6825 23.7867 22.9651 24.288 20.5758 24.288H6.7518C4.27713 24.288 2.5278 23.776 1.5038 22.752C0.50113 21.7067 -0.000203013 20.3733 -0.000203013 18.752V17.28H5.4078V17.536C5.4078 18.112 5.55713 18.5173 5.8558 18.752C6.15446 18.9653 6.6558 19.072 7.3598 19.072H20.0318C20.7358 19.072 21.2478 18.9333 21.5678 18.656C21.9091 18.3787 22.0798 17.984 22.0798 17.472V17.216C22.0798 16.7253 21.9091 16.3627 21.5678 16.128C21.2478 15.8933 20.7358 15.776 20.0318 15.776H7.2318C4.75713 15.776 2.93313 15.328 1.7598 14.432C0.586464 13.5147 -0.000203013 12.288 -0.000203013 10.752V7.424C-0.000203013 5.86667 0.50113 4.55467 1.5038 3.488C2.50646 2.42133 4.2558 1.888 6.7518 1.888H20.5758C23.0505 1.888 24.7891 2.42133 25.7918 3.488C26.7945 4.55467 27.2958 5.86667 27.2958 7.424V8.896H21.9198ZM35.372 24.288H30.156V0H35.372V24.288ZM45.6113 9.664C44.9073 9.664 44.3526 9.86667 43.9473 10.272C43.5633 10.6773 43.3713 11.2213 43.3713 11.904V17.44C43.3713 18.1227 43.5633 18.6667 43.9473 19.072C44.3526 19.4773 44.9073 19.68 45.6113 19.68H57.3553C58.0593 19.68 58.614 19.4773 59.0193 19.072C59.4246 18.6667 59.6273 18.1227 59.6273 17.44V11.904C59.6273 11.2213 59.4246 10.6773 59.0193 10.272C58.614 9.86667 58.0593 9.664 57.3553 9.664H45.6113ZM43.1473 24.288C41.654 24.288 40.4486 23.84 39.5313 22.944C38.6353 22.0267 38.1873 20.8213 38.1873 19.328V10.016C38.1873 8.52267 38.6353 7.328 39.5313 6.432C40.4486 5.51467 41.654 5.056 43.1473 5.056H59.8513C61.6006 5.056 62.8593 5.52533 63.6273 6.464C64.4166 7.40267 64.8113 8.58667 64.8113 10.016V19.328C64.8113 20.9707 64.4166 22.208 63.6273 23.04C62.8593 23.872 61.6006 24.288 59.8513 24.288H43.1473ZM89.448 25.12V24.288H71.72C70.504 24.288 69.5227 23.9253 68.776 23.2C68.0507 22.4533 67.688 21.472 67.688 20.256V10.016C67.688 8.544 68.136 7.36 69.032 6.464C69.928 5.54667 71.1227 5.088 72.616 5.088H94.664V26.56C94.664 27.8187 94.2374 28.96 93.384 29.984C92.552 31.008 91.3254 31.52 89.704 31.52H69.576V26.912H87.72C88.3387 26.912 88.776 26.7733 89.032 26.496C89.3094 26.24 89.448 25.7813 89.448 25.12ZM72.904 18.432C72.904 18.9227 73.032 19.3067 73.288 19.584C73.544 19.84 73.9814 19.968 74.6 19.968H89.448V9.696H74.728C74.0454 9.696 73.5654 9.84533 73.288 10.144C73.032 10.4427 72.904 10.8693 72.904 11.424V18.432ZM97.5005 18.368V16.192C97.5005 14.976 97.8632 13.9947 98.5885 13.248C99.3352 12.5013 100.317 12.128 101.533 12.128H118.141V11.488C118.141 10.784 118.013 10.3147 117.757 10.08C117.501 9.824 117.085 9.696 116.509 9.696H98.8125V5.088H118.397C119.954 5.088 121.17 5.504 122.045 6.336C122.919 7.14667 123.357 8.384 123.357 10.048V24.288H101.533C100.317 24.288 99.3352 23.9253 98.5885 23.2C97.8632 22.4747 97.5005 21.5147 97.5005 20.32C97.5005 20.2987 97.5005 20.2667 97.5005 20.224V18.368ZM102.685 18.752C102.685 19.0933 102.77 19.3493 102.941 19.52C103.133 19.6907 103.442 19.776 103.869 19.776H118.141V16.64H103.869C103.442 16.64 103.133 16.736 102.941 16.928C102.77 17.0987 102.685 17.3547 102.685 17.696V18.752ZM131.403 24.288H126.187V5.088H147.979C149.473 5.088 150.667 5.54667 151.563 6.464C152.481 7.36 152.939 8.55467 152.939 10.048V24.288H147.723V11.904C147.723 11.1787 147.531 10.6347 147.147 10.272C146.785 9.888 146.145 9.696 145.227 9.696H131.403V24.288Z" fill="#DAA520"/>
</svg>
