<svg width="114" height="30" viewBox="0 0 114 30" fill="none" xmlns="http://www.w3.org/2000/svg">
<path d="M21.3437 0.0324059H25.4077V18.5924H21.3437V0.0324059ZM17.7597 7.32841H22.4637V10.7844H17.7597V7.32841ZM15.2317 0.576405H19.1997V17.6004H15.2317V0.576405ZM-0.00034368 3.04041H14.3997V6.3364H-0.00034368V3.04041ZM7.23166 7.26441C8.49032 7.26441 9.59966 7.48841 10.5597 7.93641C11.5197 8.38441 12.2663 8.99241 12.7997 9.7604C13.3543 10.5284 13.6317 11.4244 13.6317 12.4484C13.6317 13.4724 13.3543 14.3791 12.7997 15.1684C12.2663 15.9364 11.5197 16.5444 10.5597 16.9924C9.59966 17.4191 8.49032 17.6324 7.23166 17.6324C6.01566 17.6324 4.91699 17.4191 3.93566 16.9924C2.97566 16.5444 2.21832 15.9364 1.66366 15.1684C1.10899 14.3791 0.831656 13.4724 0.831656 12.4484C0.831656 11.4244 1.10899 10.5284 1.66366 9.7604C2.21832 8.99241 2.97566 8.38441 3.93566 7.93641C4.91699 7.48841 6.01566 7.26441 7.23166 7.26441ZM7.23166 10.3364C6.46366 10.3364 5.83432 10.5177 5.34366 10.8804C4.87432 11.2431 4.63966 11.7657 4.63966 12.4484C4.63966 13.1311 4.87432 13.6644 5.34366 14.0484C5.83432 14.4111 6.46366 14.5924 7.23166 14.5924C7.99966 14.5924 8.62899 14.4111 9.11966 14.0484C9.61032 13.6644 9.85566 13.1311 9.85566 12.4484C9.85566 11.7657 9.61032 11.2431 9.11966 10.8804C8.65032 10.5177 8.02099 10.3364 7.23166 10.3364ZM5.11966 0.320404H9.31166V5.3124H5.11966V0.320404ZM15.3597 18.8804C18.5383 18.8804 21.0343 19.3497 22.8477 20.2884C24.661 21.2271 25.5677 22.5604 25.5677 24.2884C25.5677 25.9951 24.661 27.3177 22.8477 28.2564C21.0343 29.1951 18.5383 29.6644 15.3597 29.6644C12.181 29.6644 9.68499 29.1951 7.87166 28.2564C6.07966 27.3177 5.18366 25.9951 5.18366 24.2884C5.18366 22.5604 6.07966 21.2271 7.87166 20.2884C9.68499 19.3497 12.181 18.8804 15.3597 18.8804ZM15.3917 22.0484C13.4077 22.0484 11.9143 22.2297 10.9117 22.5924C9.90899 22.9551 9.40766 23.5204 9.40766 24.2884C9.40766 25.0351 9.90899 25.5897 10.9117 25.9524C11.9143 26.3151 13.4077 26.4964 15.3917 26.4964C17.333 26.4964 18.7943 26.3151 19.7757 25.9524C20.7783 25.5897 21.2797 25.0351 21.2797 24.2884C21.2797 23.5204 20.7783 22.9551 19.7757 22.5924C18.7943 22.2297 17.333 22.0484 15.3917 22.0484ZM36.2532 2.30441H39.6772V6.59241C39.6772 8.42707 39.5172 10.2191 39.1972 11.9684C38.8772 13.6964 38.3758 15.3071 37.6932 16.8004C37.0318 18.2937 36.1892 19.6271 35.1652 20.8004C34.1412 21.9524 32.9358 22.8697 31.5492 23.5524L28.9892 20.1284C30.2478 19.5524 31.3252 18.7844 32.2212 17.8244C33.1385 16.8644 33.8958 15.7764 34.4932 14.5604C35.0905 13.3444 35.5278 12.0644 35.8052 10.7204C36.1038 9.35507 36.2532 7.97907 36.2532 6.59241V2.30441ZM37.0852 2.30441H40.5092V6.59241C40.5092 7.93641 40.6372 9.25907 40.8932 10.5604C41.1705 11.8617 41.5865 13.0991 42.1412 14.2724C42.7172 15.4244 43.4318 16.4591 44.2852 17.3764C45.1385 18.2937 46.1625 19.0511 47.3572 19.6484L44.7652 23.0404C43.4425 22.3577 42.2905 21.4617 41.3092 20.3524C40.3492 19.2217 39.5598 17.9311 38.9412 16.4804C38.3225 15.0084 37.8532 13.4404 37.5332 11.7764C37.2345 10.0911 37.0852 8.36307 37.0852 6.59241V2.30441ZM48.5092 0.0324059H52.7972V29.6644H48.5092V0.0324059ZM51.8692 11.4244H57.0852V14.9444H51.8692V11.4244ZM60.2827 3.1044H84.4427V6.43241H60.2827V3.1044ZM59.0347 19.2004H85.8827V22.5924H59.0347V19.2004ZM70.2987 22.2084H74.5227V29.6644H70.2987V22.2084ZM72.4427 7.58441C75.6213 7.58441 78.1067 8.02174 79.8987 8.89641C81.6907 9.77107 82.5867 11.0297 82.5867 12.6724C82.5867 14.3151 81.6907 15.5844 79.8987 16.4804C78.1067 17.3551 75.6107 17.7924 72.4107 17.7924C69.232 17.7924 66.7467 17.3551 64.9547 16.4804C63.1627 15.5844 62.2667 14.3151 62.2667 12.6724C62.2667 11.0297 63.1627 9.77107 64.9547 8.89641C66.7467 8.02174 69.2427 7.58441 72.4427 7.58441ZM72.4107 10.7524C70.4907 10.7524 69.0507 10.9017 68.0907 11.2004C67.152 11.4991 66.6827 11.9897 66.6827 12.6724C66.6827 13.3337 67.152 13.8244 68.0907 14.1444C69.0507 14.4644 70.4907 14.6244 72.4107 14.6244C74.352 14.6244 75.792 14.4644 76.7307 14.1444C77.6907 13.8244 78.1707 13.3337 78.1707 12.6724C78.1707 11.9897 77.6907 11.4991 76.7307 11.2004C75.792 10.9017 74.352 10.7524 72.4107 10.7524ZM70.2987 0.000404358H74.5227V5.3124H70.2987V0.000404358ZM108.888 0.000404358H113.144V29.6324H108.888V0.000404358ZM100.152 3.0724H104.344C104.344 5.33374 104.12 7.49907 103.672 9.56841C103.245 11.6164 102.52 13.5471 101.496 15.3604C100.493 17.1737 99.1068 18.8591 97.3362 20.4164C95.5868 21.9524 93.4002 23.3604 90.7762 24.6404L88.5362 21.2804C91.3948 19.8937 93.6668 18.3684 95.3522 16.7044C97.0588 15.0191 98.2855 13.1204 99.0322 11.0084C99.7788 8.87507 100.152 6.48574 100.152 3.8404V3.0724ZM90.1362 3.0724H102.136V6.46441H90.1362V3.0724Z" fill="#DAA520"/>
</svg>
