<svg width="200" height="29" viewBox="0 0 200 29" fill="none" xmlns="http://www.w3.org/2000/svg">
<path d="M9.51562 5.85938C9.51562 7.55729 9.1875 9.16146 8.53125 10.6719C7.88542 12.1823 6.96354 13.5 5.76562 14.625C4.56771 15.7396 3.16146 16.5781 1.54688 17.1406L0 14.7969C1.41667 14.2969 2.66146 13.5885 3.73438 12.6719C4.80729 11.7552 5.625 10.7135 6.1875 9.54688C6.76042 8.36979 7.04688 7.14062 7.04688 5.85938V3.09375H9.51562V5.85938ZM10.0469 5.85938C10.0469 7.06771 10.3281 8.22917 10.8906 9.34375C11.4635 10.4583 12.2812 11.4427 13.3438 12.2969C14.4062 13.151 15.6458 13.7969 17.0625 14.2344L15.5469 16.5938C13.9427 16.0625 12.5417 15.2656 11.3438 14.2031C10.1458 13.1406 9.22396 11.8958 8.57812 10.4688C7.93229 9.03125 7.60938 7.49479 7.60938 5.85938V3.09375H10.0469V5.85938ZM16.2344 4.64062H0.765625V2.25H16.2344V4.64062ZM22.9062 20.4688H19.9531V0.03125H22.9062V20.4688ZM23.75 27.4531H4.60938V25H23.75V27.4531ZM7.57812 26.1406H4.60938V18.5469H7.57812V26.1406ZM51.2188 17.6719H48.3906V0H51.2188V17.6719ZM49.1875 9.85938H44.0469V7.42188H49.1875V9.85938ZM45.1562 16.7031H42.375V0.546875H45.1562V16.7031ZM41.3438 5.54688H27.1875V3.20312H41.3438V5.54688ZM34.2969 6.875C35.474 6.875 36.5208 7.07292 37.4375 7.46875C38.3646 7.85417 39.0833 8.41667 39.5938 9.15625C40.1042 9.88542 40.3594 10.7344 40.3594 11.7031C40.3594 12.6406 40.1042 13.474 39.5938 14.2031C39.0833 14.9219 38.3646 15.4844 37.4375 15.8906C36.5208 16.2865 35.474 16.4844 34.2969 16.4844C33.151 16.4844 32.1198 16.2865 31.2031 15.8906C30.2865 15.4844 29.5729 14.9219 29.0625 14.2031C28.5521 13.474 28.2969 12.6406 28.2969 11.7031C28.2969 10.7344 28.5521 9.88542 29.0625 9.15625C29.5729 8.41667 30.2812 7.85417 31.1875 7.46875C32.0938 7.07292 33.1302 6.875 34.2969 6.875ZM34.2969 9.03125C33.6406 9.03125 33.0573 9.14062 32.5469 9.35938C32.0469 9.56771 31.651 9.875 31.3594 10.2812C31.0781 10.6875 30.9375 11.1615 30.9375 11.7031C30.9375 12.2135 31.0781 12.6667 31.3594 13.0625C31.651 13.4583 32.0469 13.7656 32.5469 13.9844C33.0573 14.2031 33.6406 14.3125 34.2969 14.3125C34.9635 14.3125 35.5521 14.2031 36.0625 13.9844C36.5729 13.7656 36.9688 13.4583 37.25 13.0625C37.5312 12.6667 37.6719 12.2135 37.6719 11.7031C37.6719 11.1615 37.5312 10.6875 37.25 10.2812C36.9688 9.875 36.5729 9.56771 36.0625 9.35938C35.5521 9.14062 34.9635 9.03125 34.2969 9.03125ZM35.7656 4.67188H32.8125V0.234375H35.7656V4.67188ZM41.8594 18.0781C43.849 18.0781 45.5521 18.2708 46.9688 18.6562C48.3958 19.0417 49.4844 19.6094 50.2344 20.3594C50.9948 21.099 51.375 22 51.375 23.0625C51.375 24.0833 50.9948 24.9635 50.2344 25.7031C49.4844 26.4427 48.3906 27.0052 46.9531 27.3906C45.526 27.776 43.8281 27.9688 41.8594 27.9688C39.8906 27.9688 38.1927 27.776 36.7656 27.3906C35.3385 27.0052 34.2448 26.4427 33.4844 25.7031C32.7344 24.9635 32.3594 24.0833 32.3594 23.0625C32.3594 22 32.7344 21.099 33.4844 20.3594C34.2448 19.6094 35.3385 19.0417 36.7656 18.6562C38.1927 18.2708 39.8906 18.0781 41.8594 18.0781ZM41.8594 20.375C40.4635 20.3542 39.276 20.4479 38.2969 20.6562C37.3281 20.8542 36.5885 21.1615 36.0781 21.5781C35.5781 21.9844 35.3281 22.4792 35.3281 23.0625C35.3281 23.625 35.5781 24.1042 36.0781 24.5C36.5885 24.8854 37.3333 25.1771 38.3125 25.375C39.3021 25.5833 40.4844 25.6875 41.8594 25.6875C43.2552 25.6875 44.4375 25.5833 45.4062 25.375C46.3854 25.1771 47.1302 24.8854 47.6406 24.5C48.151 24.1042 48.4062 23.625 48.4062 23.0625C48.4062 22.4583 48.151 21.9583 47.6406 21.5625C47.1302 21.1562 46.3854 20.8542 45.4062 20.6562C44.4375 20.4479 43.2552 20.3542 41.8594 20.375ZM69.2031 18.9062H66.2969V14H69.2031V18.9062ZM80.5312 15.3906H55V12.9844H80.5312V15.3906ZM67.75 18.0312C69.7708 18.0312 71.5 18.224 72.9375 18.6094C74.3854 18.9948 75.4948 19.5625 76.2656 20.3125C77.0365 21.0625 77.4219 21.9688 77.4219 23.0312C77.4219 24.0729 77.0365 24.9583 76.2656 25.6875C75.4948 26.4271 74.3854 26.9896 72.9375 27.375C71.5 27.7708 69.7708 27.9688 67.75 27.9688C65.7292 27.9688 63.9896 27.7708 62.5312 27.375C61.0729 26.9896 59.9583 26.4271 59.1875 25.6875C58.4167 24.9583 58.0312 24.0729 58.0312 23.0312C58.0312 21.9688 58.4167 21.0625 59.1875 20.3125C59.9583 19.5625 61.0729 18.9948 62.5312 18.6094C63.9896 18.224 65.7292 18.0312 67.75 18.0312ZM67.75 20.3125C66.3229 20.3125 65.1094 20.4219 64.1094 20.6406C63.1094 20.849 62.349 21.1562 61.8281 21.5625C61.3073 21.9583 61.0469 22.4479 61.0469 23.0312C61.0469 23.5833 61.3073 24.0573 61.8281 24.4531C62.349 24.849 63.1094 25.151 64.1094 25.3594C65.1094 25.5781 66.3229 25.6875 67.75 25.6875C69.1458 25.6875 70.349 25.5781 71.3594 25.3594C72.3698 25.151 73.1354 24.849 73.6562 24.4531C74.1771 24.0573 74.4375 23.5833 74.4375 23.0312C74.4375 22.4479 74.1771 21.9583 73.6562 21.5625C73.1354 21.1562 72.375 20.849 71.375 20.6406C70.3854 20.4219 69.1771 20.3125 67.75 20.3125ZM68.4219 3.21875C68.4219 4.65625 67.9427 5.96354 66.9844 7.14062C66.026 8.30729 64.7083 9.26562 63.0312 10.0156C61.3542 10.7552 59.4635 11.25 57.3594 11.5L56.3438 9.15625C58.1042 8.96875 59.7031 8.59375 61.1406 8.03125C62.5885 7.45833 63.724 6.75 64.5469 5.90625C65.3698 5.05208 65.7812 4.15625 65.7812 3.21875V2.40625H68.4219V3.21875ZM69.7344 3.21875C69.7344 4.16667 70.1406 5.0625 70.9531 5.90625C71.776 6.75 72.9115 7.45833 74.3594 8.03125C75.8073 8.59375 77.4271 8.96875 79.2188 9.15625L78.1406 11.5C76.0677 11.25 74.1875 10.7552 72.5 10.0156C70.8229 9.26562 69.5 8.30729 68.5312 7.14062C67.5625 5.96354 67.0781 4.65625 67.0781 3.21875V2.40625H69.7344V3.21875ZM78.25 3.65625H57.3281V1.28125H78.25V3.65625ZM105.875 20.3906H102.922V0.03125H105.875V20.3906ZM106.719 27.4531H87.5781V25H106.719V27.4531ZM90.5469 25.8906H87.5781V18.3281H90.5469V25.8906ZM90.6875 1.92188C92.0833 1.92188 93.349 2.21875 94.4844 2.8125C95.6302 3.39583 96.526 4.21875 97.1719 5.28125C97.8177 6.33333 98.1406 7.52604 98.1406 8.85938C98.1406 10.2135 97.8177 11.4167 97.1719 12.4688C96.526 13.5208 95.6302 14.3438 94.4844 14.9375C93.349 15.5312 92.0833 15.8281 90.6875 15.8281C89.2917 15.8281 88.026 15.5312 86.8906 14.9375C85.7656 14.3438 84.875 13.5208 84.2188 12.4688C83.5625 11.4167 83.2344 10.2135 83.2344 8.85938C83.2344 7.52604 83.5625 6.33333 84.2188 5.28125C84.875 4.21875 85.7656 3.39583 86.8906 2.8125C88.026 2.21875 89.2917 1.92188 90.6875 1.92188ZM90.6875 4.51562C89.8333 4.51562 89.0573 4.69792 88.3594 5.0625C87.6615 5.42708 87.1146 5.9375 86.7188 6.59375C86.3333 7.25 86.1406 8.00521 86.1406 8.85938C86.1406 9.71354 86.3333 10.474 86.7188 11.1406C87.1146 11.8073 87.6615 12.3229 88.3594 12.6875C89.0573 13.0521 89.8333 13.2344 90.6875 13.2344C91.5417 13.2344 92.3125 13.0521 93 12.6875C93.6875 12.3229 94.2292 11.8073 94.625 11.1406C95.0208 10.474 95.2188 9.71354 95.2188 8.85938C95.2188 8.00521 95.0208 7.25 94.625 6.59375C94.2292 5.9375 93.6875 5.42708 93 5.0625C92.3125 4.69792 91.5417 4.51562 90.6875 4.51562ZM141.328 28.0781H138.344V0H141.328V28.0781ZM126.328 2.10938C127.724 2.10938 128.969 2.51562 130.062 3.32812C131.156 4.14062 132.01 5.28646 132.625 6.76562C133.24 8.24479 133.547 9.96875 133.547 11.9375C133.547 13.9167 133.24 15.6458 132.625 17.125C132.01 18.6042 131.156 19.75 130.062 20.5625C128.969 21.3646 127.724 21.7656 126.328 21.7656C124.932 21.7656 123.682 21.3646 122.578 20.5625C121.484 19.75 120.63 18.6042 120.016 17.125C119.401 15.6458 119.094 13.9167 119.094 11.9375C119.094 9.96875 119.401 8.24479 120.016 6.76562C120.63 5.28646 121.484 4.14062 122.578 3.32812C123.682 2.51562 124.932 2.10938 126.328 2.10938ZM126.328 4.76562C125.474 4.76562 124.714 5.05729 124.047 5.64062C123.38 6.22396 122.865 7.05729 122.5 8.14062C122.146 9.21354 121.969 10.4792 121.969 11.9375C121.969 13.3854 122.146 14.651 122.5 15.7344C122.865 16.8177 123.38 17.651 124.047 18.2344C124.714 18.8073 125.474 19.0938 126.328 19.0938C127.182 19.0938 127.938 18.8073 128.594 18.2344C129.26 17.651 129.776 16.8177 130.141 15.7344C130.505 14.651 130.688 13.3854 130.688 11.9375C130.688 10.4792 130.505 9.21354 130.141 8.14062C129.776 7.05729 129.266 6.22396 128.609 5.64062C127.953 5.05729 127.193 4.76562 126.328 4.76562ZM169.656 21.2656H166.828V0H169.656V21.2656ZM162.203 10.4531H157.141V8.03125H162.203V10.4531ZM164.188 20.3906H161.375V0.53125H164.188V20.3906ZM149.766 6.8125H155.188V2.23438H157.953V16.0781H146.969V2.23438H149.766V6.8125ZM155.188 13.6719V9.10938H149.766V13.6719H155.188ZM170.453 27.4531H151.078V25H170.453V27.4531ZM154.031 26.3281H151.078V18.4219H154.031V26.3281ZM196.172 17.3125H176.641V14.9219H196.172V17.3125ZM199.062 24.4844H173.438V22.0469H199.062V24.4844ZM195.891 4.76562H179.672V15.6094H176.641V2.29688H195.891V4.76562ZM195.266 10.8594H178.75V8.51562H195.266V10.8594Z" fill="#DAA520"/>
</svg>
