<svg width="172" height="29" viewBox="0 0 172 29" fill="none" xmlns="http://www.w3.org/2000/svg">
<path d="M25.9375 17.875H0V14.7031H25.9375V17.875ZM14.9219 16.1719H10.9062V10.6719H14.9219V16.1719ZM22.9844 27.9844H3.125V24.7656H22.9844V27.9844ZM7.10938 25.875H3.125V19.6562H7.10938V25.875ZM12.9531 0.75C15.0156 0.75 16.8281 0.984375 18.3906 1.45312C19.9531 1.92188 21.1562 2.59896 22 3.48438C22.8542 4.35938 23.2812 5.38542 23.2812 6.5625C23.2812 7.79167 22.8542 8.84896 22 9.73438C21.1562 10.6198 19.9583 11.3021 18.4062 11.7812C16.8542 12.2604 15.0365 12.5 12.9531 12.5C10.8698 12.5 9.04688 12.2604 7.48438 11.7812C5.92188 11.3021 4.71354 10.6198 3.85938 9.73438C3.00521 8.84896 2.57812 7.79167 2.57812 6.5625C2.57812 5.38542 3.00521 4.35938 3.85938 3.48438C4.71354 2.59896 5.92188 1.92188 7.48438 1.45312C9.05729 0.984375 10.8802 0.75 12.9531 0.75ZM12.9531 3.90625C11.6406 3.90625 10.5156 4.01042 9.57812 4.21875C8.65104 4.42708 7.94271 4.72917 7.45312 5.125C6.96354 5.52083 6.71875 6 6.71875 6.5625C6.71875 7.14583 6.95833 7.64583 7.4375 8.0625C7.92708 8.47917 8.63542 8.78646 9.5625 8.98438C10.5 9.18229 11.6302 9.28125 12.9531 9.28125C14.2865 9.28125 15.4115 9.18229 16.3281 8.98438C17.2448 8.78646 17.9479 8.47917 18.4375 8.0625C18.9271 7.64583 19.1719 7.14583 19.1719 6.5625C19.1719 6 18.9271 5.52083 18.4375 5.125C17.9479 4.72917 17.2396 4.42708 16.3125 4.21875C15.3854 4.01042 14.2656 3.90625 12.9531 3.90625ZM50.0781 28.5469H46.1406V0H50.0781V28.5469ZM54.2969 14.0625H49.2031V10.7656H54.2969V14.0625ZM31.2188 18.5938C33.8854 18.6042 36.2031 18.5521 38.1719 18.4375C40.151 18.3229 42.1354 18.0938 44.125 17.75L44.4844 20.9375C42.4323 21.3021 40.3802 21.5573 38.3281 21.7031C36.276 21.849 33.9062 21.9167 31.2188 21.9062H28.8281V18.5938H31.2188ZM41.9375 13.4219H32.7969V19.8594H28.8281V10.2812H37.9688V5.625H28.7969V2.40625H41.9375V13.4219ZM79.0938 20.5H75.1094V0.0625H79.0938V20.5ZM79.875 27.9844H60.0469V24.7656H79.875V27.9844ZM64.0781 26.0781H60.0469V18.4531H64.0781V26.0781ZM63.5156 1.85938C64.9635 1.85938 66.2812 2.16667 67.4688 2.78125C68.6667 3.38542 69.6042 4.23958 70.2812 5.34375C70.9583 6.4375 71.2969 7.66146 71.2969 9.01562C71.2969 10.4115 70.9583 11.6562 70.2812 12.75C69.6042 13.8438 68.6667 14.7031 67.4688 15.3281C66.2812 15.9427 64.9635 16.25 63.5156 16.25C62.0677 16.25 60.75 15.9427 59.5625 15.3281C58.3854 14.7031 57.4531 13.8438 56.7656 12.75C56.0781 11.6562 55.7344 10.4115 55.7344 9.01562C55.7344 7.66146 56.0781 6.4375 56.7656 5.34375C57.4531 4.23958 58.3854 3.38542 59.5625 2.78125C60.75 2.16667 62.0677 1.85938 63.5156 1.85938ZM63.5156 5.32812C62.776 5.31771 62.1094 5.46354 61.5156 5.76562C60.9323 6.05729 60.4688 6.48438 60.125 7.04688C59.7917 7.60938 59.625 8.26562 59.625 9.01562C59.625 9.78646 59.7917 10.4583 60.125 11.0312C60.4688 11.5938 60.9323 12.026 61.5156 12.3281C62.1094 12.6198 62.776 12.7656 63.5156 12.7656C64.2448 12.7656 64.8958 12.6198 65.4688 12.3281C66.0521 12.026 66.5104 11.5938 66.8438 11.0312C67.1771 10.4583 67.3438 9.78646 67.3438 9.01562C67.3438 8.26562 67.1771 7.60938 66.8438 7.04688C66.5104 6.48438 66.0521 6.05729 65.4688 5.76562C64.8958 5.46354 64.2448 5.31771 63.5156 5.32812ZM114.172 28.5469H110.125V0H114.172V28.5469ZM98.7188 2.01562C100.146 2.01562 101.427 2.43229 102.562 3.26562C103.708 4.09896 104.599 5.28125 105.234 6.8125C105.88 8.34375 106.203 10.125 106.203 12.1562C106.203 14.1979 105.88 15.9844 105.234 17.5156C104.599 19.0469 103.708 20.2292 102.562 21.0625C101.427 21.8854 100.146 22.2969 98.7188 22.2969C97.2708 22.2969 95.974 21.8854 94.8281 21.0625C93.6927 20.2292 92.8021 19.0469 92.1562 17.5156C91.5104 15.9844 91.1875 14.1979 91.1875 12.1562C91.1875 10.125 91.5104 8.34375 92.1562 6.8125C92.8021 5.28125 93.6927 4.09896 94.8281 3.26562C95.974 2.43229 97.2708 2.01562 98.7188 2.01562ZM98.7188 5.625C97.9896 5.61458 97.3438 5.86458 96.7812 6.375C96.2292 6.875 95.8021 7.61979 95.5 8.60938C95.2083 9.58854 95.0625 10.7708 95.0625 12.1562C95.0625 13.5417 95.2083 14.724 95.5 15.7031C95.8021 16.6823 96.2292 17.4271 96.7812 17.9375C97.3438 18.4375 97.9896 18.6875 98.7188 18.6875C99.4375 18.6875 100.073 18.4375 100.625 17.9375C101.177 17.4271 101.604 16.6823 101.906 15.7031C102.208 14.724 102.359 13.5417 102.359 12.1562C102.359 10.7708 102.208 9.58854 101.906 8.60938C101.604 7.61979 101.177 6.875 100.625 6.375C100.083 5.86458 99.4479 5.61458 98.7188 5.625ZM142.453 21.5469H138.656V0H142.453V21.5469ZM133.922 11.1094H129.328V7.90625H133.922V11.1094ZM136.672 20.6406H132.906V0.46875H136.672V20.6406ZM122.797 6.5625H126.656V2.21875H130.359V16.5781H119.016V2.21875H122.797V6.5625ZM126.656 13.3906V9.59375H122.797V13.3906H126.656ZM143.172 27.9844H123.172V24.7656H143.172V27.9844ZM127.156 26.6406H123.172V18.7031H127.156V26.6406ZM168.859 17.875H148.734V14.7344H168.859V17.875ZM171.688 25.1562H145.688V21.9219H171.688V25.1562ZM168.641 5.35938H152.797V15.5781H148.734V2.10938H168.641V5.35938ZM167.969 11.4688H151.609V8.35938H167.969V11.4688Z" fill="#DAA520"/>
</svg>
